<?xml version="1.0" encoding="UTF-8" standalone="no"?>
<!-- Created with Inkscape (http://www.inkscape.org/) -->

<svg
   xmlns:dc="http://purl.org/dc/elements/1.1/"
   xmlns:cc="http://creativecommons.org/ns#"
   xmlns:rdf="http://www.w3.org/1999/02/22-rdf-syntax-ns#"
   xmlns:svg="http://www.w3.org/2000/svg"
   xmlns="http://www.w3.org/2000/svg"
   xmlns:sodipodi="http://sodipodi.sourceforge.net/DTD/sodipodi-0.dtd"
   xmlns:inkscape="http://www.inkscape.org/namespaces/inkscape"
   id="svg7384"
   sodipodi:docname="grid.svg"
   version="1.1"
   inkscape:version="0.48.4 r9939"
   height="16"
   width="16"
   inkscape:export-filename="/home/raizen/Escritorio/PSPP icon original/Carpeta sin título/goto-case.png"
   inkscape:export-xdpi="90"
   inkscape:export-ydpi="90">
  <metadata
     id="metadata90">
    <rdf:RDF>
      <cc:Work
         rdf:about="">
        <dc:format>image/svg+xml</dc:format>
        <dc:type
           rdf:resource="http://purl.org/dc/dcmitype/StillImage" />
        <dc:title />
        <dc:creator>
          <cc:Agent>
            <dc:title>GNU PSPP Community</dc:title>
          </cc:Agent>
        </dc:creator>
        <cc:license
           rdf:resource="http://creativecommons.org/licenses/by-sa/3.0/" />
      </cc:Work>
      <cc:License
         rdf:about="http://creativecommons.org/licenses/by-sa/3.0/">
        <cc:permits
           rdf:resource="http://creativecommons.org/ns#Reproduction" />
        <cc:permits
           rdf:resource="http://creativecommons.org/ns#Distribution" />
        <cc:requires
           rdf:resource="http://creativecommons.org/ns#Notice" />
        <cc:requires
           rdf:resource="http://creativecommons.org/ns#Attribution" />
        <cc:permits
           rdf:resource="http://creativecommons.org/ns#DerivativeWorks" />
        <cc:requires
           rdf:resource="http://creativecommons.org/ns#ShareAlike" />
      </cc:License>
    </rdf:RDF>
  </metadata>
  <sodipodi:namedview
     inkscape:cy="6.1532361"
     pagecolor="#4d4d4d"
     borderopacity="1"
     showborder="false"
     inkscape:bbox-paths="false"
     guidetolerance="10"
     inkscape:object-paths="true"
     inkscape:window-width="1366"
     showguides="true"
     inkscape:object-nodes="true"
     inkscape:snap-bbox="true"
     inkscape:pageshadow="2"
     inkscape:guide-bbox="true"
     inkscape:snap-nodes="false"
     bordercolor="#666666"
     objecttolerance="10"
     id="namedview88"
     showgrid="true"
     inkscape:window-maximized="1"
     inkscape:window-x="0"
     inkscape:snap-global="true"
     inkscape:window-y="28"
     gridtolerance="10"
     inkscape:window-height="675"
     inkscape:snap-others="false"
     inkscape:snap-to-guides="true"
     inkscape:current-layer="layer12"
     inkscape:snap-bbox-midpoints="false"
     inkscape:zoom="11.313709"
     inkscape:cx="8.1374666"
     inkscape:snap-grids="true"
     inkscape:pageopacity="0"
     inkscape:bbox-nodes="true"
     inkscape:snap-bbox-edge-midpoints="true">
    <inkscape:grid
       spacingx="1px"
       spacingy="1px"
       id="grid4866"
       empspacing="2"
       enabled="true"
       type="xygrid"
       snapvisiblegridlinesonly="true"
       visible="true" />
    <sodipodi:guide
       position="0,0"
       orientation="0,16.085251"
       id="guide3001" />
    <sodipodi:guide
       position="24,16.798541"
       orientation="-16.02426,0"
       id="guide3003" />
    <sodipodi:guide
       position="15.620287,24"
       orientation="0,-16.085251"
       id="guide3005" />
    <sodipodi:guide
       position="0,16.02426"
       orientation="16.02426,0"
       id="guide3007" />
    <sodipodi:guide
       position="0,0"
       orientation="0,24"
       id="guide3022" />
    <sodipodi:guide
       position="24,0"
       orientation="-24,0"
       id="guide3024" />
    <sodipodi:guide
       position="24,24"
       orientation="0,-24"
       id="guide3026" />
    <sodipodi:guide
       position="0,24"
       orientation="24,0"
       id="guide3028" />
    <sodipodi:guide
       position="0,0"
       orientation="0,16"
       id="guide3016" />
    <sodipodi:guide
       position="16,0"
       orientation="-16,0"
       id="guide3018" />
    <sodipodi:guide
       position="16,16"
       orientation="0,-16"
       id="guide3020" />
    <sodipodi:guide
       position="0,16"
       orientation="16,0"
       id="guide3023" />
  </sodipodi:namedview>
  <defs
     id="defs7386">
    <inkscape:path-effect
       effect="spiro"
       id="path-effect91806"
       is_visible="true" />
  </defs>
  <g
     inkscape:label="GNU PSPP Symbolic icon theme"
     transform="translate(-60.952227,-647)"
     inkscape:groupmode="layer"
     id="layer12"
     style="display:inline">
    <g
       transform="matrix(1.5,0,0,1.4993893,4.95223,514.16573)"
       inkscape:label="lc_togglemergecells"
       id="lc_mergecells"
       style="display:inline">
      <path
         sodipodi:nodetypes="ccccccccccccccccccccccccccccccccccccccccccccccccccccccc"
         inkscape:connector-curvature="0"
         id="path4419"
         d="m 482.6666,239.03523 -1.33332,-0.005 -2e-5,1.33839 1e-5,3.99635 10e-6,4.66987 0,1.33334 1.33332,0.005 5.33333,0 5.33333,0 1.33335,-0.005 0,-1.33331 0,-4.66987 -10e-6,-3.99635 10e-6,-1.33836 -1.33335,0.005 -5.33333,0 z m 0,1.33192 2,0 0.66666,0 0,2 -2.66666,0 z m 4,0 2.66666,0 0,2 -2.66666,0 z m 4,0 2.66666,0 0,2 -2.66666,0 z m -8,3.32968 10.66667,0 0,2 -10.66667,0 z m 0,3.33654 2.66667,0 0,2 -0.66667,0 -2,0 z m 4,0 2.66667,0 0,2 -2.66667,0 z m 4,0 2.66667,0 0,2 -2,0 -0.66667,0 z"
         style="font-size:medium;font-style:normal;font-variant:normal;font-weight:normal;font-stretch:normal;text-indent:0;text-align:start;text-decoration:none;line-height:normal;letter-spacing:normal;word-spacing:normal;text-transform:none;direction:ltr;block-progression:tb;writing-mode:lr-tb;text-anchor:start;baseline-shift:baseline;opacity:0.35;color:#000000;fill:#555753;fill-opacity:1;stroke:none;stroke-width:2;marker:none;visibility:visible;display:inline;overflow:visible;enable-background:new;font-family:Sans;-inkscape-font-specification:Sans" />
      <rect
         style="fill:none;stroke:none"
         id="rect4421"
         width="16"
         height="16"
         x="480"
         y="236.36221" />
      <g
         transform="matrix(0.66666667,0,0,0.6669382,378.66661,-113.36262)"
         style="display:inline"
         id="g4423">
        <rect
           y="533.37408"
           x="154"
           height="6.9999561"
           width="2"
           id="rect4425"
           style="fill:#555753;fill-opacity:1;fill-rule:nonzero;stroke:none" />
        <rect
           y="538.37408"
           x="154"
           height="2"
           width="20"
           id="rect4427"
           style="fill:#555753;fill-opacity:1;fill-rule:nonzero;stroke:none" />
        <rect
           y="533.37408"
           x="172"
           height="6.9999561"
           width="2"
           id="rect4429"
           style="fill:#555753;fill-opacity:1;fill-rule:nonzero;stroke:none" />
        <rect
           y="533.37408"
           x="154"
           height="2"
           width="20"
           id="rect4431"
           style="fill:#555753;fill-opacity:1;fill-rule:nonzero;stroke:none" />
      </g>
    </g>
    <g
       transform="matrix(1.5,0,0,1.4993893,4.95223,514.16573)"
       inkscape:label="lc_togglemergecells"
       id="lc_mergecells-7"
       style="display:inline">
      <path
         sodipodi:nodetypes="ccccccccccccccccccccccccccccccccccccccccccccccccccccccc"
         inkscape:connector-curvature="0"
         id="path4435"
         d="m 482.6666,239.03523 -1.33332,-0.005 -2e-5,1.33839 1e-5,3.99635 10e-6,4.66987 0,1.33334 1.33332,0.005 5.33333,0 5.33333,0 1.33335,-0.005 0,-1.33331 0,-4.66987 -10e-6,-3.99635 10e-6,-1.33836 -1.33335,0.005 -5.33333,0 z m 0,1.33192 2,0 0.66666,0 0,2 -2.66666,0 z m 4,0 2.66666,0 0,2 -2.66666,0 z m 4,0 2.66666,0 0,2 -2.66666,0 z m -8,3.32968 10.66667,0 0,2 -10.66667,0 z m 0,3.33654 2.66667,0 0,2 -0.66667,0 -2,0 z m 4,0 2.66667,0 0,2 -2.66667,0 z m 4,0 2.66667,0 0,2 -2,0 -0.66667,0 z"
         style="font-size:medium;font-style:normal;font-variant:normal;font-weight:normal;font-stretch:normal;text-indent:0;text-align:start;text-decoration:none;line-height:normal;letter-spacing:normal;word-spacing:normal;text-transform:none;direction:ltr;block-progression:tb;writing-mode:lr-tb;text-anchor:start;baseline-shift:baseline;opacity:0.35;color:#000000;fill:#555753;fill-opacity:1;stroke:none;stroke-width:2;marker:none;visibility:visible;display:inline;overflow:visible;enable-background:new;font-family:Sans;-inkscape-font-specification:Sans" />
      <rect
         style="fill:none;stroke:none"
         id="rect4437"
         width="16"
         height="16"
         x="480"
         y="236.36221" />
      <g
         transform="matrix(0.66666667,0,0,0.6669382,378.66661,-113.36262)"
         style="display:inline"
         id="g4439">
        <rect
           y="533.37408"
           x="154"
           height="6.9999561"
           width="2"
           id="rect4441"
           style="fill:#555753;fill-opacity:1;fill-rule:nonzero;stroke:none" />
        <rect
           y="538.37408"
           x="154"
           height="2"
           width="20"
           id="rect4443"
           style="fill:#555753;fill-opacity:1;fill-rule:nonzero;stroke:none" />
        <rect
           y="533.37408"
           x="172"
           height="6.9999561"
           width="2"
           id="rect4445"
           style="fill:#555753;fill-opacity:1;fill-rule:nonzero;stroke:none" />
        <rect
           y="533.37408"
           x="154"
           height="2"
           width="20"
           id="rect4447"
           style="fill:#555753;fill-opacity:1;fill-rule:nonzero;stroke:none" />
      </g>
    </g>
    <rect
       style="fill:none;stroke:none"
       id="rect6323"
       width="24"
       height="23.990229"
       x="60.952229"
       y="639.00977" />
    <rect
       style="fill:#555753;fill-opacity:1;stroke:none"
       id="rect3025"
       width="1.1538439"
       height="12.692307"
       x="60.95224"
       y="650.30768" />
    <rect
       style="fill:#555753;fill-opacity:1;stroke:none;display:inline"
       id="rect3025-2"
       width="1.1538483"
       height="12.692307"
       x="74.79837"
       y="650.30768" />
    <rect
       style="fill:#555753;fill-opacity:1;stroke:none;display:inline"
       id="rect3025-2-0"
       width="2.3076923"
       height="14.999992"
       x="648"
       y="-75.952217"
       transform="matrix(0,1,-1,0,0,0)"
       ry="1.1538453" />
    <rect
       style="fill:#555753;fill-opacity:1;stroke:none;display:inline"
       id="rect3025-2-0-9"
       width="1.1538444"
       height="14.999996"
       x="661.84613"
       y="-75.952217"
       transform="matrix(0,1,-1,0,0,0)" />
    <rect
       style="fill:#555753;fill-opacity:1;stroke:none;display:inline"
       id="rect3025-2-0-3"
       width="2.3076923"
       height="14.999996"
       x="660.69232"
       y="-75.952225"
       transform="matrix(0,1,-1,0,0,0)" />
    <rect
       style="fill:#555753;fill-opacity:1;stroke:none;display:inline"
       id="rect3025-2-0-3-4"
       width="1.1538461"
       height="14.999996"
       x="657.23077"
       y="-75.952225"
       transform="matrix(0,1,-1,0,0,0)" />
    <rect
       style="fill:#555753;fill-opacity:1;stroke:none;display:inline"
       id="rect3025-2-0-3-4-8"
       width="1.1538461"
       height="14.999996"
       x="653.76923"
       y="-75.952225"
       transform="matrix(0,1,-1,0,0,0)" />
    <rect
       style="fill:#555753;fill-opacity:1;stroke:none;display:inline"
       id="rect3025-2-0-3-4-1"
       width="1.1538444"
       height="14.999996"
       x="650.30768"
       y="-75.952225"
       transform="matrix(0,1,-1,0,0,0)" />
    <rect
       style="fill:#555753;fill-opacity:1;stroke:none;display:inline"
       id="rect3025-2-0-3-4-3"
       width="2.3076923"
       height="14.999994"
       x="649.15387"
       y="-75.952217"
       transform="matrix(0,1,-1,0,0,0)" />
    <rect
       style="fill:#555753;fill-opacity:1;stroke:none;display:inline"
       id="rect3025-2-0-3-4-3-7"
       width="1.15385"
       height="12.692307"
       x="-66.721451"
       y="-663"
       transform="scale(-1,-1)" />
    <rect
       style="fill:#555753;fill-opacity:1;stroke:none;display:inline"
       id="rect3025-2-0-3-4-3-1"
       width="1.1538457"
       height="12.692307"
       x="-71.33683"
       y="-663"
       transform="scale(-1,-1)" />
  </g>
</svg>
