<?xml version="1.0" encoding="UTF-8" standalone="no"?>
<!-- Created with Inkscape (http://www.inkscape.org/) -->

<svg
   xmlns:dc="http://purl.org/dc/elements/1.1/"
   xmlns:cc="http://creativecommons.org/ns#"
   xmlns:rdf="http://www.w3.org/1999/02/22-rdf-syntax-ns#"
   xmlns:svg="http://www.w3.org/2000/svg"
   xmlns="http://www.w3.org/2000/svg"
   xmlns:sodipodi="http://sodipodi.sourceforge.net/DTD/sodipodi-0.dtd"
   xmlns:inkscape="http://www.inkscape.org/namespaces/inkscape"
   id="svg7384"
   sodipodi:docname="insert-case.svg"
   version="1.1"
   inkscape:version="0.48.4 r9939"
   height="16"
   width="16">
  <metadata
     id="metadata90">
    <rdf:RDF>
      <cc:Work
         rdf:about="">
        <dc:format>image/svg+xml</dc:format>
        <dc:type
           rdf:resource="http://purl.org/dc/dcmitype/StillImage" />
        <dc:title />
        <dc:creator>
          <cc:Agent>
            <dc:title>GNU PSPP Community</dc:title>
          </cc:Agent>
        </dc:creator>
        <cc:license
           rdf:resource="http://www.gnu.org/licenses/gpl-3.0.html" />
      </cc:Work>
    </rdf:RDF>
  </metadata>
  <sodipodi:namedview
     inkscape:cy="9.2361393"
     pagecolor="#555753"
     borderopacity="1"
     showborder="false"
     inkscape:bbox-paths="false"
     guidetolerance="10"
     inkscape:object-paths="true"
     inkscape:window-width="1366"
     showguides="true"
     inkscape:object-nodes="true"
     inkscape:snap-bbox="true"
     inkscape:pageshadow="2"
     inkscape:guide-bbox="true"
     inkscape:snap-nodes="true"
     bordercolor="#666666"
     objecttolerance="10"
     id="namedview88"
     showgrid="true"
     inkscape:window-maximized="1"
     inkscape:window-x="0"
     inkscape:snap-global="true"
     inkscape:window-y="28"
     gridtolerance="10"
     inkscape:window-height="675"
     inkscape:snap-others="false"
     inkscape:snap-to-guides="true"
     inkscape:current-layer="layer12"
     inkscape:snap-bbox-midpoints="false"
     inkscape:zoom="16"
     inkscape:cx="10.961137"
     inkscape:snap-grids="true"
     inkscape:pageopacity="0">
    <inkscape:grid
       spacingx="1px"
       spacingy="1px"
       id="grid4866"
       empspacing="2"
       enabled="true"
       type="xygrid"
       snapvisiblegridlinesonly="true"
       visible="true" />
    <sodipodi:guide
       position="0,0"
       orientation="0,16.085251"
       id="guide3001" />
    <sodipodi:guide
       position="24,16.798541"
       orientation="-16.02426,0"
       id="guide3003" />
    <sodipodi:guide
       position="15.620287,24"
       orientation="0,-16.085251"
       id="guide3005" />
    <sodipodi:guide
       position="0,16.02426"
       orientation="16.02426,0"
       id="guide3007" />
    <sodipodi:guide
       position="0,0"
       orientation="0,24"
       id="guide3022" />
    <sodipodi:guide
       position="24,0"
       orientation="-24,0"
       id="guide3024" />
    <sodipodi:guide
       position="24,24"
       orientation="0,-24"
       id="guide3026" />
    <sodipodi:guide
       position="0,24"
       orientation="24,0"
       id="guide3028" />
    <sodipodi:guide
       position="0,0"
       orientation="0,16"
       id="guide3051" />
    <sodipodi:guide
       position="16,0"
       orientation="-16,0"
       id="guide3053" />
    <sodipodi:guide
       position="16,16"
       orientation="0,-16"
       id="guide3055" />
    <sodipodi:guide
       position="0,16"
       orientation="16,0"
       id="guide3057" />
  </sodipodi:namedview>
  <defs
     id="defs7386" />
  <g
     inkscape:label="status"
     transform="translate(-60.952227,-647)"
     inkscape:groupmode="layer"
     id="layer9"
     style="display:inline" />
  <g
     inkscape:label="devices"
     transform="translate(-60.952227,-647)"
     inkscape:groupmode="layer"
     id="layer10" />
  <g
     inkscape:label="apps"
     transform="translate(-60.952227,-647)"
     inkscape:groupmode="layer"
     id="layer11" />
  <g
     inkscape:label="places"
     transform="translate(-60.952227,-647)"
     inkscape:groupmode="layer"
     id="layer13" />
  <g
     inkscape:label="mimetypes"
     transform="translate(-60.952227,-647)"
     inkscape:groupmode="layer"
     id="layer14" />
  <g
     inkscape:label="emblems"
     transform="translate(-60.952227,-647)"
     inkscape:groupmode="layer"
     id="layer15"
     style="display:inline" />
  <g
     inkscape:label="emotes"
     transform="translate(-60.952227,-647)"
     inkscape:groupmode="layer"
     id="g71291"
     style="display:inline" />
  <g
     inkscape:label="categories"
     transform="translate(-60.952227,-647)"
     inkscape:groupmode="layer"
     id="g4953"
     style="display:inline" />
  <g
     inkscape:label="actions"
     transform="translate(-60.952227,-647)"
     inkscape:groupmode="layer"
     id="layer12"
     style="display:inline">
    <path
       style="font-size:medium;font-style:normal;font-variant:normal;font-weight:normal;font-stretch:normal;text-indent:0;text-align:start;text-decoration:none;line-height:normal;letter-spacing:normal;word-spacing:normal;text-transform:none;direction:ltr;block-progression:tb;writing-mode:lr-tb;text-anchor:start;color:#000000;fill:#555753;fill-opacity:1;stroke:none;stroke-width:2;marker:none;visibility:visible;display:inline;overflow:visible;enable-background:accumulate;font-family:Bitstream Vera Sans;-inkscape-font-specification:Bitstream Vera Sans"
       sodipodi:nodetypes="ccccccccccccccccccc"
       id="path3613-0"
       d="m 68.577227,649 0,4.94444 -1.12108,-1.13888 c -0.16465,-0.16725 -0.39677,-0.24999 -0.62892,-0.25 l -0.875,0 0,0.88888 c 1e-5,0.23583 0.0816,0.47163 0.24609,0.63889 l 2.625,2.66667 0.24609,0.25 0.76562,0 0.24612,-0.25 2.62499,-2.66667 c 0.16467,-0.16726 0.24608,-0.40306 0.24609,-0.63889 l 0,-0.88888 -0.875,0 c -0.23215,10e-6 -0.46426,0.0828 -0.62891,0.25 l -1.12109,1.13888 0,-4.94444 z"
       inkscape:connector-curvature="0" />
    <path
       inkscape:connector-curvature="0"
       style="opacity:0.35;fill:#555753;fill-opacity:1;stroke:none;display:inline"
       d="m 61.452227,658.99995 c -0.276993,0 -0.5,0.22301 -0.5,0.5 l 0,3 c 0,0.27699 0.223007,0.5 0.5,0.5 l 4.5,0 1,0 4,0 1,0 4.5,0 c 0.06925,0 0.127642,-0.006 0.1875,-0.0313 0.179574,-0.0757 0.3125,-0.261 0.3125,-0.46875 l 0,-3 c 0,-0.27699 -0.223007,-0.5 -0.5,-0.5 l -15,0 z m 0.96875,1 3.0625,0 c 0.265198,0 0.46875,0.20355 0.46875,0.46875 l 0,1.0625 c 0,0.2652 -0.203552,0.46875 -0.46875,0.46875 l -3.0625,0 c -0.265198,0 -0.46875,-0.20355 -0.46875,-0.46875 l 0,-1.0625 c 0,-0.2652 0.203552,-0.46875 0.46875,-0.46875 z m 5,0 3.0625,0 c 0.265198,0 0.46875,0.20355 0.46875,0.46875 l 0,1.0625 c 0,0.2652 -0.203552,0.46875 -0.46875,0.46875 l -3.0625,0 c -0.265198,0 -0.46875,-0.20355 -0.46875,-0.46875 l 0,-1.0625 c 0,-0.2652 0.203552,-0.46875 0.46875,-0.46875 z m 5,0 3.0625,0 c 0.265198,0 0.46875,0.20355 0.46875,0.46875 l 0,1.0625 c 0,0.2652 -0.203552,0.46875 -0.46875,0.46875 l -3.0625,0 c -0.265198,0 -0.46875,-0.20355 -0.46875,-0.46875 l 0,-1.0625 c 0,-0.2652 0.203552,-0.46875 0.46875,-0.46875 z"
       id="rect3052" />
    <path
       style="fill:#555753;fill-opacity:1;stroke:none;display:inline"
       d="m 66.452227,659 c -0.277001,0 -0.5,0.223 -0.5,0.5 l 0,3 c 0,0.277 0.222999,0.5 0.5,0.5 l 5,0 c 0.06925,0 0.12764,-0.006 0.1875,-0.0313 0.179578,-0.0757 0.3125,-0.261 0.3125,-0.46875 l 0,-3 c 0,-0.277 -0.223,-0.5 -0.5,-0.5 l -5,0 z m 0.96875,1 3.0625,0 c 0.265198,0 0.46875,0.20355 0.46875,0.46875 l 0,1.0625 c 0,0.2652 -0.203552,0.46875 -0.46875,0.46875 l -3.0625,0 c -0.265198,0 -0.46875,-0.20355 -0.46875,-0.46875 l 0,-1.0625 c 0,-0.2652 0.203552,-0.46875 0.46875,-0.46875 z"
       id="rect3917"
       inkscape:connector-curvature="0" />
  </g>
</svg>
