<?xml version="1.0" encoding="UTF-8" standalone="no"?>
<!-- Created with Inkscape (http://www.inkscape.org/) -->

<svg
   xmlns:dc="http://purl.org/dc/elements/1.1/"
   xmlns:cc="http://creativecommons.org/ns#"
   xmlns:rdf="http://www.w3.org/1999/02/22-rdf-syntax-ns#"
   xmlns:svg="http://www.w3.org/2000/svg"
   xmlns="http://www.w3.org/2000/svg"
   xmlns:sodipodi="http://sodipodi.sourceforge.net/DTD/sodipodi-0.dtd"
   xmlns:inkscape="http://www.inkscape.org/namespaces/inkscape"
   id="svg7384"
   sodipodi:docname="transform-recode-same-variables.svg"
   version="1.1"
   inkscape:version="0.48.4 r9939"
   height="24"
   width="24"
   inkscape:export-filename="/home/raizen/Escritorio/PSPP icon original/Carpeta sin título/goto-case.png"
   inkscape:export-xdpi="90"
   inkscape:export-ydpi="90">
  <metadata
     id="metadata90">
    <rdf:RDF>
      <cc:Work
         rdf:about="">
        <dc:format>image/svg+xml</dc:format>
        <dc:type
           rdf:resource="http://purl.org/dc/dcmitype/StillImage" />
        <dc:title />
        <dc:creator>
          <cc:Agent>
            <dc:title>GNU PSPP Community</dc:title>
          </cc:Agent>
        </dc:creator>
        <cc:license
           rdf:resource="http://creativecommons.org/licenses/by-sa/3.0/" />
      </cc:Work>
      <cc:License
         rdf:about="http://creativecommons.org/licenses/by-sa/3.0/">
        <cc:permits
           rdf:resource="http://creativecommons.org/ns#Reproduction" />
        <cc:permits
           rdf:resource="http://creativecommons.org/ns#Distribution" />
        <cc:requires
           rdf:resource="http://creativecommons.org/ns#Notice" />
        <cc:requires
           rdf:resource="http://creativecommons.org/ns#Attribution" />
        <cc:permits
           rdf:resource="http://creativecommons.org/ns#DerivativeWorks" />
        <cc:requires
           rdf:resource="http://creativecommons.org/ns#ShareAlike" />
      </cc:License>
    </rdf:RDF>
  </metadata>
  <sodipodi:namedview
     inkscape:cy="9.4531255"
     pagecolor="#4d4d4d"
     borderopacity="1"
     showborder="false"
     inkscape:bbox-paths="false"
     guidetolerance="10"
     inkscape:object-paths="true"
     inkscape:window-width="1366"
     showguides="true"
     inkscape:object-nodes="true"
     inkscape:snap-bbox="true"
     inkscape:pageshadow="2"
     inkscape:guide-bbox="true"
     inkscape:snap-nodes="false"
     bordercolor="#666666"
     objecttolerance="10"
     id="namedview88"
     showgrid="true"
     inkscape:window-maximized="1"
     inkscape:window-x="0"
     inkscape:snap-global="true"
     inkscape:window-y="28"
     gridtolerance="10"
     inkscape:window-height="675"
     inkscape:snap-others="false"
     inkscape:snap-to-guides="true"
     inkscape:current-layer="lc_centerpara"
     inkscape:snap-bbox-midpoints="false"
     inkscape:zoom="14.852481"
     inkscape:cx="8.5412086"
     inkscape:snap-grids="true"
     inkscape:pageopacity="0"
     inkscape:bbox-nodes="true"
     inkscape:snap-bbox-edge-midpoints="false">
    <inkscape:grid
       spacingx="1px"
       spacingy="1px"
       id="grid4866"
       empspacing="2"
       enabled="true"
       type="xygrid"
       snapvisiblegridlinesonly="true"
       visible="true" />
    <sodipodi:guide
       position="0,0"
       orientation="0,16.085251"
       id="guide3001" />
    <sodipodi:guide
       position="24,16.798541"
       orientation="-16.02426,0"
       id="guide3003" />
    <sodipodi:guide
       position="15.620287,24"
       orientation="0,-16.085251"
       id="guide3005" />
    <sodipodi:guide
       position="0,16.02426"
       orientation="16.02426,0"
       id="guide3007" />
    <sodipodi:guide
       position="0,0"
       orientation="0,24"
       id="guide3022" />
    <sodipodi:guide
       position="24,0"
       orientation="-24,0"
       id="guide3024" />
    <sodipodi:guide
       position="24,24"
       orientation="0,-24"
       id="guide3026" />
    <sodipodi:guide
       position="0,24"
       orientation="24,0"
       id="guide3028" />
  </sodipodi:namedview>
  <defs
     id="defs7386">
    <inkscape:path-effect
       effect="spiro"
       id="path-effect91806"
       is_visible="true" />
  </defs>
  <g
     inkscape:label="GNU PSPP Symbolic icon theme"
     transform="translate(-60.952227,-639)"
     inkscape:groupmode="layer"
     id="layer12"
     style="display:inline">
    <g
       style="display:inline"
       transform="translate(-99.047773,138.6378)"
       inkscape:label="lc_centerpara"
       id="lc_centerpara">
      <path
         id="path7756"
         d="m 161,507.46757 3.49252,3.89463 c 1.19744,-1.38889 2.24429,-2.62069 3.43782,-4.01439 l -2.51224,0.0435 -0.0219,-0.0244 c -0.25415,-0.8654 -0.0319,-2.00584 0.738,-2.90483 1.02648,-1.19863 2.46361,-1.27483 3.20253,-0.45085 0.31721,0.49357 1.03842,0.54829 1.41596,0.10752 0.37753,-0.44085 0.31296,-1.26237 -0.12677,-1.61287 -1.57573,-1.75715 -4.16981,-1.40954 -5.80143,0.49577 -1.05877,1.23635 -1.53994,2.9127 -1.31231,4.42261 z"
         style="fill:#555753;fill-opacity:1;stroke:none;display:inline"
         inkscape:connector-curvature="0"
         sodipodi:nodetypes="cccccscscscc" />
      <path
         id="path7756-4"
         d="m 183,517.25682 -3.49254,-3.89462 c -1.19744,1.38888 -2.24429,2.62068 -3.43782,4.01438 l 2.51225,-0.0434 0.0219,0.0243 c 0.25415,0.8654 0.0319,2.00584 -0.73801,2.90482 -1.02648,1.19863 -2.46361,1.27483 -3.20254,0.45085 -0.31721,-0.49357 -1.03842,-0.54831 -1.41595,-0.10744 -0.37753,0.44084 -0.31297,1.26237 0.12675,1.61286 1.57574,1.75715 4.16982,1.40954 5.80146,-0.49575 1.05876,-1.23637 1.53995,-2.91272 1.31232,-4.42262 z"
         style="fill:#555753;fill-opacity:1;stroke:none;display:inline"
         inkscape:connector-curvature="0"
         sodipodi:nodetypes="cccccscscscc" />
      <path
         style="fill:#555753;fill-opacity:1;stroke:none"
         d="M 1.1875 12 C 0.5227 12 0 12.5227 0 13.1875 L 0 13.8125 L 0 14.5 L 0 21.59375 L 0 22.1875 L 0 22.90625 C 0.0478 23.5266 0.55448 24 1.1875 24 L 1.8125 24 L 10.1875 24 L 10.8125 24 C 11.4773 24 12 23.4773 12 22.8125 L 12 22.1875 L 12 21.59375 L 12 14.5 L 12 13.8125 L 12 13.1875 C 12 12.5227 11.4773 12 10.8125 12 L 10.1875 12 L 1.8125 12 L 1.1875 12 z M 1.03125 13 L 4.0625 13 L 5.875 16.09375 L 7.625 13 L 10.75 13 L 7.5625 18.09375 L 11 23 L 7.84375 23 L 5.875 19.875 L 3.90625 23 L 0.8125 23 L 4.1875 17.875 L 1.03125 13 z "
         transform="translate(160,500.3622)"
         id="rect3002" />
      <path
         style="fill:#555753;fill-opacity:1;stroke:none;display:inline"
         d="m 139.1875,502.3622 c -0.6648,0 -1.1875,0.5227 -1.1875,1.1875 l 0,0.625 0,0.6875 0,7.09375 0,0.59375 0,0.71875 c 0.0478,0.62035 0.55448,1.09375 1.1875,1.09375 l 0.625,0 8.375,0 0.625,0 c 0.6648,0 1.1875,-0.5227 1.1875,-1.1875 l 0,-0.625 0,-0.59375 0,-7.09375 0,-0.6875 0,-0.625 c 0,-0.6648 -0.5227,-1.1875 -1.1875,-1.1875 l -0.625,0 -8.375,0 -0.625,0 z m -0.1875,1 3.125,0 1.8125,3.71875 1.8125,-3.71875 3.125,0 -3.5,6.09375 0,3.90625 -2.875,0 0,-3.8125 -3.5,-6.1875 z"
         id="rect3002-2"
         inkscape:connector-curvature="0" />
      <path
         inkscape:connector-curvature="0"
         style="fill:#555753;fill-opacity:1;stroke:none;display:inline"
         d="m 173.1875,500.3622 c -0.6648,0 -1.1875,0.5227 -1.1875,1.1875 l 0,0.625 0,0.6875 0,7.09375 0,0.59375 0,0.71875 c 0.0478,0.62035 0.55448,1.09375 1.1875,1.09375 l 0.625,0 8.375,0 0.625,0 c 0.6648,0 1.1875,-0.5227 1.1875,-1.1875 l 0,-0.625 0,-0.59375 0,-7.09375 0,-0.6875 0,-0.625 c 0,-0.6648 -0.5227,-1.1875 -1.1875,-1.1875 l -0.625,0 -8.375,0 -0.625,0 z m -0.15625,1 3.03125,0 1.8125,3.09375 1.75,-3.09375 3.125,0 -3.1875,5.09375 3.4375,4.90625 -3.15625,0 -1.96875,-3.125 -1.96875,3.125 -3.09375,0 3.375,-5.125 -3.15625,-4.875 z"
         id="rect3002-5" />
    </g>
  </g>
</svg>
