<?xml version="1.0" encoding="UTF-8" standalone="no"?>
<!-- Created with Sodipodi ("http://www.sodipodi.com/") -->
<svg xmlns:dc="http://purl.org/dc/elements/1.1/" xmlns:cc="http://web.resource.org/cc/" xmlns:rdf="http://www.w3.org/1999/02/22-rdf-syntax-ns#" xmlns:svg="http://www.w3.org/2000/svg" xmlns="http://www.w3.org/2000/svg" xmlns:xlink="http://www.w3.org/1999/xlink" xmlns:sodipodi="http://inkscape.sourceforge.net/DTD/sodipodi-0.dtd" xmlns:inkscape="http://www.inkscape.org/namespaces/inkscape" id="svg602" sodipodi:version="0.32" width="1000pt" height="1200pt" xml:space="preserve" sodipodi:docbase="/home/patrick/Documents/Projects/pspp/psppweb" sodipodi:docname="pspplogo.svg" inkscape:version="0.43" version="1.0"><metadata id="metadata24"><rdf:RDF><cc:Work rdf:about=""><dc:format>image/svg+xml</dc:format><dc:type rdf:resource="http://purl.org/dc/dcmitype/StillImage"/></cc:Work></rdf:RDF></metadata><defs id="defs604"><linearGradient id="linearGradient675"><stop style="stop-color:#000;stop-opacity:1;" offset="0" id="stop676"/><stop style="stop-color:#fff;stop-opacity:1;" offset="1" id="stop677"/></linearGradient><linearGradient xlink:href="#linearGradient675" id="linearGradient678"/><linearGradient xlink:href="#linearGradient675" id="linearGradient679"/></defs><sodipodi:namedview id="base" inkscape:zoom="0.36109241" inkscape:cx="6.5737867" inkscape:cy="667.27588" inkscape:window-width="1269" inkscape:window-height="934" inkscape:window-x="1" inkscape:window-y="30" inkscape:current-layer="g2230"/>




<g id="g2230" inkscape:export-xdpi="59.68" inkscape:export-ydpi="59.68" transform="translate(315.7087,210.4724)"><path id="path2228" d="M 462.51896,-1.4518474 L 462.26896,159.61065 L 729.98766,338.3919 L 748.70641,306.36065 L 763.92516,272.3294 L 774.95641,236.23565 L 781.92516,198.5794 L 784.30016,159.61065 L 777.70641,94.766903 L 759.01891,34.329403 L 739.48766,-1.4518474 L 462.51896,-1.4518474 z " style="font-size:12px;fill:#a0a0a0;fill-opacity:1;stroke:#000000;stroke-width:8.83699989;stroke-miterlimit:4;stroke-opacity:1"/><path id="polygon2209" d="M 462.51896,-1.4518474 L 739.48766,-1.4518474 L 729.26891,-20.201847 L 690.08141,-67.920597 L 642.48766,-107.26435 L 587.80016,-136.8581 L 527.48766,-155.70185 L 462.76896,-162.2956 L 462.51896,-1.4518474 z " style="font-size:12px;fill:#a0a0a0;fill-opacity:0.34117647;stroke:#000000;stroke-width:8.83699989;stroke-miterlimit:4;stroke-opacity:0.17368421"/><path id="polygon647" d="M 160.05016,-0.76434744 L 141.33136,33.829403 L 122.48766,94.266903 L 116.01896,159.11065 L 122.48766,223.86065 L 141.33136,284.2669 L 170.92516,338.9544 L 210.26896,386.67315 L 257.95636,425.98565 L 312.64396,455.61065 L 373.05016,474.42315 L 438.05016,481.0169 L 468.01896,479.5794 L 497.39396,475.5169 L 525.80016,468.79815 L 553.26891,459.67315 L 579.51891,448.29815 L 438.05016,159.11065 L 438.05016,-0.76434744 L 160.05016,-0.76434744 z " style="font-size:12px;fill:#00007a;fill-opacity:1;stroke:#000000;stroke-width:8.83699989;stroke-miterlimit:4;stroke-dasharray:none"/><path id="path673" d="M -226.69984,-0.70184744 L -226.69984,1080.6107 L -93.074835,1080.6107 L 6.0501648,1080.6107 L 861.30016,1080.6107 L 861.30016,854.54815 L 6.0501648,854.54815 L 6.0501648,-0.70184744 L -226.69984,-0.70184744 z " style="font-size:12px;fill:#00007a;fill-opacity:1;fill-rule:evenodd;stroke:none;stroke-width:8.24512196"/><path style="font-size:347.17446899px;font-weight:normal;fill:#a0a0a0;fill-opacity:1;stroke:#000000;stroke-width:8.83751869;stroke-opacity:1;font-family:URW Gothic L" d="M 89.847796,804.34619 L 115.53871,804.34619 L 115.53871,700.54103 L 164.83748,700.54103 C 199.55489,700.54103 218.30236,696.02775 233.9252,684.571 C 250.58956,672.41991 259.61611,651.24222 259.61611,625.55134 C 259.61611,596.04154 248.50651,572.78081 229.06476,561.32406 C 213.09475,551.60319 193.65293,547.78426 160.67139,547.78426 L 89.847796,547.78426 L 89.847796,804.34619 M 115.53871,677.28034 L 115.53871,571.04495 L 151.99203,571.04495 C 181.50183,571.04495 199.90211,573.47517 210.31734,578.68279 C 225.24582,586.32062 233.57803,602.63785 233.57803,625.55134 C 233.57803,645.34026 225.593,661.31032 212.40038,668.60097 C 201.63799,674.85011 186.70945,677.28034 163.10161,677.28034 L 115.53871,677.28034 M 276.55715,732.48108 C 278.98736,778.65523 310.58029,808.85946 356.75445,808.85946 C 401.19274,808.85946 434.17435,776.57219 434.17435,732.82825 C 434.17435,710.26193 424.80063,690.12578 408.48344,677.97468 C 398.06822,670.33685 387.30578,665.4764 360.92054,657.49139 C 337.65988,650.54791 330.02201,647.42333 323.07852,641.52137 C 315.78787,634.92506 310.92742,623.46828 310.92742,611.66436 C 310.92742,585.97348 329.67487,566.87885 355.36575,566.87885 C 381.40381,566.87885 399.45691,584.93195 401.19278,612.70588 L 427.92521,612.70588 C 426.88369,571.04499 398.06817,543.27099 356.0601,543.27099 C 314.74638,543.27099 284.88933,572.43369 284.88933,612.35871 C 284.88933,630.06459 291.48566,647.07617 302.94241,657.83857 C 313.01046,667.55944 320.99551,671.37838 350.85248,680.40491 C 370.98858,686.65404 382.09819,691.51449 390.43037,697.41645 C 401.88712,705.40146 408.13627,718.59411 408.13627,734.21695 C 408.13627,763.72675 386.61142,785.2516 357.4488,785.2516 C 341.13161,785.2516 325.50874,777.96092 316.13504,766.157 C 308.84438,757.13047 305.7198,748.45109 303.98393,732.48108 L 276.55715,732.48108 M 468.21373,804.34619 L 493.90464,804.34619 L 493.90464,700.54103 L 543.20342,700.54103 C 577.92083,700.54103 596.6683,696.02775 612.29114,684.571 C 628.95549,672.41991 637.98205,651.24222 637.98205,625.55134 C 637.98205,596.04154 626.87244,572.78081 607.43069,561.32406 C 591.46068,551.60319 572.01887,547.78426 539.03732,547.78426 L 468.21373,547.78426 L 468.21373,804.34619 M 493.90464,677.28034 L 493.90464,571.04495 L 530.35796,571.04495 C 559.86776,571.04495 578.26805,573.47517 588.68327,578.68279 C 603.61176,586.32062 611.94396,602.63785 611.94396,625.55134 C 611.94396,645.34026 603.95894,661.31032 590.76632,668.60097 C 580.00392,674.85011 565.07539,677.28034 541.46754,677.28034 L 493.90464,677.28034 M 673.67049,804.34619 L 699.3614,804.34619 L 699.3614,700.54103 L 748.66017,700.54103 C 783.37759,700.54103 802.12506,696.02775 817.74789,684.571 C 834.41225,672.41991 843.4388,651.24222 843.4388,625.55134 C 843.4388,596.04154 832.3292,572.78081 812.88745,561.32406 C 796.91744,551.60319 777.47562,547.78426 744.49408,547.78426 L 673.67049,547.78426 L 673.67049,804.34619 M 699.3614,677.28034 L 699.3614,571.04495 L 735.81472,571.04495 C 765.32452,571.04495 783.72481,573.47517 794.14003,578.68279 C 809.06852,586.32062 817.40072,602.63785 817.40072,625.55134 C 817.40072,645.34026 809.41569,661.31032 796.22308,668.60097 C 785.46068,674.85011 770.53214,677.28034 746.9243,677.28034 L 699.3614,677.28034" id="text605"/>

<g transform="matrix(0.11989,0,0,0.11989,-661.7668,-1447.038)" id="g650" style="font-size:12px;fill:#00007a;fill-opacity:1;stroke:#000000;stroke-width:73.71299744;stroke-dasharray:none"><polygon style="fill:#00007a;fill-opacity:1;stroke:#000000;stroke-width:73.71299744;stroke-dasharray:none;stroke-opacity:1" id="polygon651" points="9789,14026 12022,15517 11852,15742 11660,15949 11447,16135 11216,16298 10968,16437 9789,14026 "/></g><rect y="-0.68056142" x="33.891838" height="827.41229" width="827.41229" id="rect691" style="font-size:12px;fill:none;fill-opacity:0.27420002;fill-rule:evenodd;stroke:#000000;stroke-width:8.83749962;stroke-dasharray:none;stroke-opacity:1"/><path style="font-size:241.34417725px;font-style:normal;font-variant:normal;font-weight:bold;font-stretch:normal;text-align:center;line-height:200%;writing-mode:tb-rl;text-anchor:middle;fill:#ffffff;fill-opacity:1;stroke:none;stroke-width:2.78509998;stroke-opacity:1;font-family:Nimbus Sans L" d="M -74.265266,481.71595 L -38.063639,481.71595 L -38.063639,305.77604 L -74.265266,305.77604 L -74.265266,425.48275 L -144.01373,305.77604 L -181.18074,305.77604 L -181.18074,481.71595 L -144.97911,481.71595 L -144.97911,360.07848 L -74.265266,481.71595" id="text646"/>

<path style="font-size:110.70687866px;font-style:normal;font-weight:bold;line-height:100%;writing-mode:lr-tb;text-anchor:middle;fill:#ffffff;fill-opacity:1;stroke:none;stroke-width:2.78509998;stroke-opacity:1;font-family:Nimbus Sans L" d="M -177.15521,924.59126 L -177.15521,1005.2966 L -161.65624,1005.2966 L -161.65624,969.42754 C -161.65624,962.56372 -156.67443,957.69261 -149.6999,957.69261 C -146.3787,957.69261 -143.72173,958.91039 -141.95042,961.34594 C -140.62194,963.33866 -140.17911,964.88856 -140.17911,968.7633 L -140.17911,1005.2966 L -124.68014,1005.2966 L -124.68014,965.22068 C -124.68014,957.80333 -126.67287,952.48939 -130.76902,949.05748 C -134.20093,946.1791 -139.18275,944.51849 -144.16456,944.51849 C -151.80332,944.51849 -157.33868,947.61829 -161.65624,954.14999 L -161.65624,924.59126 L -177.15521,924.59126 M -83.571565,946.73263 L -92.206702,946.73263 L -92.206702,930.68013 L -107.70566,930.68013 L -107.70566,946.73263 L -115.34444,946.73263 L -115.34444,957.02837 L -107.70566,957.02837 L -107.70566,993.78305 C -107.70566,1003.1931 -102.72385,1007.8428 -92.538823,1007.8428 C -89.106913,1007.8428 -86.339235,1007.5107 -83.571565,1006.6251 L -83.571565,995.77578 C -85.12146,995.99719 -86.007118,996.1079 -87.114185,996.1079 C -91.210336,996.1079 -92.206702,994.89012 -92.206702,989.57619 L -92.206702,957.02837 L -83.571565,957.02837 L -83.571565,946.73263 M -46.597192,946.73263 L -55.232329,946.73263 L -55.232329,930.68013 L -70.731292,930.68013 L -70.731292,946.73263 L -78.370067,946.73263 L -78.370067,957.02837 L -70.731292,957.02837 L -70.731292,993.78305 C -70.731292,1003.1931 -65.749472,1007.8428 -55.56445,1007.8428 C -52.13254,1007.8428 -49.364862,1007.5107 -46.597192,1006.6251 L -46.597192,995.77578 C -48.147087,995.99719 -49.032745,996.1079 -50.139813,996.1079 C -54.235963,996.1079 -55.232329,994.89012 -55.232329,989.57619 L -55.232329,957.02837 L -46.597192,957.02837 L -46.597192,946.73263 M -21.025636,945.51486 L -36.524599,945.51486 L -36.524599,1029.4307 L -21.025636,1029.4307 L -21.025636,998.21133 C -17.261606,1004.8537 -11.947664,1007.9535 -4.419604,1007.9535 C 9.9722759,1007.9535 20.600151,994.44728 20.600151,976.29137 C 20.600151,967.87765 18.164595,959.46392 14.179152,953.92858 C 10.193708,948.28253 2.776336,944.51849 -4.419604,944.51849 C -11.947664,944.51849 -17.261606,947.729 -21.025636,954.37141 L -21.025636,945.51486 M -7.9622241,957.4712 C -0.10204356,957.4712 5.1011876,965.10998 5.1011876,976.51278 C 5.1011876,987.36204 -0.32345709,995.00083 -7.9622241,995.00083 C -15.711698,995.00083 -21.025636,987.47275 -21.025636,976.29137 C -21.025636,965.10998 -15.711698,957.4712 -7.9622241,957.4712 M 53.848549,989.13337 L 37.242517,989.13337 L 37.242517,1005.2966 L 53.848549,1005.2966 L 53.848549,989.13337 M 53.848549,947.72899 L 37.242517,947.72899 L 37.242517,963.8922 L 53.848549,963.8922 L 53.848549,947.72899 M 84.734036,926.25186 L 61.928419,1006.8465 L 69.34578,1006.8465 L 92.151397,926.25186 L 84.734036,926.25186 M 115.43789,926.25186 L 92.632277,1006.8465 L 100.04964,1006.8465 L 122.85525,926.25186 L 115.43789,926.25186 M 190.97804,1005.2966 L 207.91619,945.51486 L 191.86369,945.51486 L 182.78573,987.36206 L 173.81847,945.51486 L 158.31951,945.51486 L 149.24154,987.36206 L 139.72075,945.51486 L 123.66825,945.51486 L 140.4957,1005.2966 L 156.43749,1005.2966 L 165.95828,963.11725 L 174.92554,1005.2966 L 190.97804,1005.2966 M 277.03535,1005.2966 L 293.9735,945.51486 L 277.921,945.51486 L 268.84304,987.36206 L 259.87578,945.51486 L 244.37682,945.51486 L 235.29886,987.36206 L 225.77806,945.51486 L 209.72557,945.51486 L 226.55301,1005.2966 L 242.4948,1005.2966 L 252.01559,963.11725 L 260.98285,1005.2966 L 277.03535,1005.2966 M 363.09263,1005.2966 L 380.03078,945.51486 L 363.97829,945.51486 L 354.90032,987.36206 L 345.93306,945.51486 L 330.4341,945.51486 L 321.35614,987.36206 L 311.83535,945.51486 L 295.78285,945.51486 L 312.61029,1005.2966 L 328.55208,1005.2966 L 338.07288,963.11725 L 347.04013,1005.2966 L 363.09263,1005.2966 M 404.9779,989.13337 L 388.37187,989.13337 L 388.37187,1005.2966 L 404.9779,1005.2966 L 404.9779,989.13337 M 457.15889,945.51486 L 457.15889,954.70353 C 452.50921,947.61829 447.41668,944.51849 440.55286,944.51849 C 426.38239,944.51849 415.75452,958.35687 415.75452,976.8449 C 415.75452,995.44364 425.49674,1007.8428 440.22074,1007.8428 C 447.19526,1007.8428 451.40214,1005.7394 457.15889,999.20769 L 457.15889,1007.2893 C 457.15889,1014.4852 451.73424,1019.4671 443.98477,1019.4671 C 438.11731,1019.4671 434.24256,1017.0315 433.02479,1012.4925 L 416.97229,1012.4925 C 417.083,1017.1422 418.85431,1020.3527 422.83976,1023.6739 C 427.60015,1027.5486 434.24257,1029.4307 443.43124,1029.4307 C 461.47644,1029.4307 471.8829,1021.3491 471.8829,1007.2893 L 471.8829,945.51486 L 457.15889,945.51486 M 443.87406,957.4712 C 451.62354,957.4712 457.3803,965.55281 457.3803,976.62349 C 457.3803,987.47275 451.73424,994.89012 443.65265,994.89012 C 436.346,994.89012 431.25348,987.47275 431.25348,976.62349 C 431.25348,965.3314 436.346,957.4712 443.87406,957.4712 M 486.64324,945.51486 L 486.64324,1005.2966 L 502.1422,1005.2966 L 502.1422,969.42754 C 502.1422,962.34231 507.12402,957.69261 514.65208,957.69261 C 521.29449,957.69261 524.6157,961.34595 524.6157,968.43118 L 524.6157,1005.2966 L 540.11466,1005.2966 L 540.11466,965.22068 C 540.11466,952.04657 532.80799,944.51849 520.07672,944.51849 C 511.99512,944.51849 506.57047,947.50759 502.1422,954.14999 L 502.1422,945.51486 L 486.64324,945.51486 M 607.23935,1005.2966 L 607.23935,945.51486 L 591.74039,945.51486 L 591.74039,982.93378 C 591.74039,990.01901 586.75857,994.66871 579.23051,994.66871 C 572.5881,994.66871 569.26689,991.12608 569.26689,983.93014 L 569.26689,945.51486 L 553.76793,945.51486 L 553.76793,987.14064 C 553.76793,1000.3147 561.07459,1007.8428 573.80587,1007.8428 C 581.88747,1007.8428 587.31212,1004.8537 591.74039,998.21133 L 591.74039,1005.2966 L 607.23935,1005.2966 M 638.71642,989.13337 L 622.11039,989.13337 L 622.11039,1005.2966 L 638.71642,1005.2966 L 638.71642,989.13337 M 679.05178,944.51849 C 660.78516,944.51849 649.60375,956.58556 649.60375,976.18066 C 649.60375,995.88647 660.78516,1007.8428 679.16249,1007.8428 C 697.3184,1007.8428 708.72122,995.77576 708.72122,976.62349 C 708.72122,956.36415 697.76122,944.51849 679.05178,944.51849 M 679.16249,957.02837 C 687.68691,957.02837 693.22226,964.66716 693.22226,976.40207 C 693.22226,987.58346 687.46549,995.33295 679.16249,995.33295 C 670.74877,995.33295 665.10271,987.58346 665.10271,976.18066 C 665.10271,964.77786 670.74877,957.02837 679.16249,957.02837 M 720.38176,945.51486 L 720.38176,1005.2966 L 735.88073,1005.2966 L 735.88073,973.5237 C 735.88073,964.44574 740.41972,959.90675 749.49767,959.90675 C 751.15828,959.90675 752.26535,960.01746 754.36878,960.34958 L 754.36878,944.6292 C 753.48312,944.51849 752.92959,944.51849 752.48676,944.51849 C 745.40153,944.51849 739.20193,949.16819 735.88073,957.24978 L 735.88073,945.51486 L 720.38176,945.51486 M 801.60432,945.51486 L 801.60432,954.70353 C 796.95464,947.61829 791.86211,944.51849 784.99829,944.51849 C 770.82783,944.51849 760.19995,958.35687 760.19995,976.8449 C 760.19995,995.44364 769.94217,1007.8428 784.66617,1007.8428 C 791.6407,1007.8428 795.84757,1005.7394 801.60432,999.20769 L 801.60432,1007.2893 C 801.60432,1014.4852 796.17968,1019.4671 788.43021,1019.4671 C 782.56275,1019.4671 778.688,1017.0315 777.47022,1012.4925 L 761.41773,1012.4925 C 761.52843,1017.1422 763.29975,1020.3527 767.28519,1023.6739 C 772.04558,1027.5486 778.68801,1029.4307 787.87667,1029.4307 C 805.92187,1029.4307 816.32834,1021.3491 816.32834,1007.2893 L 816.32834,945.51486 L 801.60432,945.51486 M 788.3195,957.4712 C 796.06897,957.4712 801.82574,965.55281 801.82574,976.62349 C 801.82574,987.47275 796.17968,994.89012 788.09809,994.89012 C 780.79144,994.89012 775.69891,987.47275 775.69891,976.62349 C 775.69891,965.3314 780.79144,957.4712 788.3195,957.4712" id="text692"/>

<path style="font-size:241.34417725px;font-style:normal;font-variant:normal;font-weight:bold;font-stretch:normal;text-align:center;line-height:200%;writing-mode:tb-rl;text-anchor:middle;fill:#ffffff;fill-opacity:1;stroke:none;stroke-width:2.78509998;stroke-opacity:1;font-family:Nimbus Sans L" d="M -33.048936,138.21523 L -103.52144,138.21523 L -103.52144,168.38325 L -63.458302,168.38325 C -64.423678,178.27835 -66.837126,184.31197 -72.146692,190.58692 C -80.835074,201.20605 -94.109027,207.48101 -108.10697,207.48101 C -137.30959,207.48101 -158.30656,181.89849 -158.30656,145.6969 C -158.30656,107.8059 -139.72303,84.878167 -109.07235,84.878167 C -96.522467,84.878167 -85.903303,88.498337 -77.938953,95.497311 C -72.87073,99.841502 -70.215936,103.94437 -67.078465,113.11544 L -33.048936,113.11544 C -37.393127,76.913845 -66.837163,53.986112 -109.3137,53.986112 C -159.99592,53.986112 -194.50819,91.394514 -194.50819,146.17959 C -194.50819,199.5166 -159.75458,238.37306 -112.20983,238.37306 C -88.55812,238.37306 -72.629367,229.926 -59.114107,210.13579 L -54.769912,233.30484 L -33.048936,233.30484 L -33.048936,138.21523" id="text1323"/>

<path style="font-size:241.34417725px;font-style:normal;font-variant:normal;font-weight:bold;font-stretch:normal;text-align:center;line-height:200%;writing-mode:tb-rl;text-anchor:middle;fill:#ffffff;fill-opacity:1;stroke:none;stroke-width:2.78509998;stroke-opacity:1;font-family:Nimbus Sans L" d="M -74.075402,544.29209 L -74.075402,663.51612 C -74.075402,684.75438 -84.935913,694.89086 -107.62224,694.89086 C -130.30857,694.89086 -141.16908,684.75438 -141.16908,663.51612 L -141.16908,544.29209 L -177.37071,544.29209 L -177.37071,663.51612 C -177.37071,683.30632 -172.06113,697.30431 -160.23527,707.92345 C -147.44405,719.50795 -128.86051,725.78291 -107.62224,725.78291 C -86.383977,725.78291 -67.800441,719.50795 -55.009212,707.92345 C -43.18336,697.30431 -37.873776,683.30632 -37.873776,663.51612 L -37.873776,544.29209 L -74.075402,544.29209" id="text1327"/>

<path id="path2261" d="M 438.09236,-0.83497044 L 438.09236,-162.86622 L 373.09236,-156.39747 L 312.68616,-137.55372 L 257.99856,-107.95997 L 210.31116,-68.61622 L 170.96736,-20.92872 L 160.09236,-0.83497044 L 438.09236,-0.83497044 z " style="fill:#00007a;fill-opacity:0.27368421;fill-rule:evenodd;stroke:#000000;stroke-width:8.83699989;stroke-linecap:round;stroke-miterlimit:4;stroke-dasharray:none;stroke-dashoffset:0;stroke-opacity:0.17254902"/></g></svg>