<?xml version="1.0" encoding="UTF-8" standalone="no"?>
<!-- Generator: Adobe Illustrator 15.0.0, SVG Export Plug-In . SVG Version: 6.00 Build 0)  -->
<svg xmlns:dc="http://purl.org/dc/elements/1.1/" xmlns:cc="http://creativecommons.org/ns#" xmlns:rdf="http://www.w3.org/1999/02/22-rdf-syntax-ns#" xmlns:svg="http://www.w3.org/2000/svg" xmlns="http://www.w3.org/2000/svg" xmlns:sodipodi="http://sodipodi.sourceforge.net/DTD/sodipodi-0.dtd" xmlns:inkscape="http://www.inkscape.org/namespaces/inkscape" version="1.1" id="Layer_1" x="0px" y="0px" width="595.28px" height="841.89px" viewBox="0 0 595.28 841.89" enable-background="new 0 0 595.28 841.89" xml:space="preserve" inkscape:version="0.47 r22583" sodipodi:docname="diagramma a torta 2.svg"><defs id="defs177"><inkscape:perspective sodipodi:type="inkscape:persp3d" inkscape:vp_x="0 : 420.94501 : 1" inkscape:vp_y="0 : 1000 : 0" inkscape:vp_z="595.28003 : 420.94501 : 1" inkscape:persp3d-origin="297.64001 : 280.63 : 1" id="perspective181"/></defs><sodipodi:namedview pagecolor="#ffffff" bordercolor="#666666" borderopacity="1" objecttolerance="10" gridtolerance="10" guidetolerance="10" inkscape:pageopacity="0" inkscape:pageshadow="2" inkscape:window-width="683" inkscape:window-height="488" id="namedview175" showgrid="false" inkscape:zoom="0.28032165" inkscape:cx="297.64001" inkscape:cy="420.94501" inkscape:window-x="0" inkscape:window-y="0" inkscape:window-maximized="0" inkscape:current-layer="Layer_1"/>
<radialGradient id="SVGID_1_" cx="275.1016" cy="547.1553" r="226.5632" gradientUnits="userSpaceOnUse">
	<stop offset="0" style="stop-color:#FFFFFF" id="stop4"/>
	<stop offset="0.24" style="stop-color:#FBEA26" id="stop6"/>
	<stop offset="1" style="stop-color:#E6282B" id="stop8"/>
</radialGradient>
<path fill="url(#SVGID_1_)" d="M284.581,421.833c4.099-5.387,8.111-10.807,12.228-16.182l-1.544-27.889  c-2.07,0.111-4.146,0.195-6.312,0.352c-87.709,4.506-175.506,9.07-263.294,13.563l0.813,14.654  c85.534-4.441,171.06-8.836,256.52-13.275L284.581,421.833z" id="path10"/>
<radialGradient id="SVGID_2_" cx="289.9849" cy="199.9395" r="334.3937" gradientUnits="userSpaceOnUse">
	<stop offset="0" style="stop-color:#FFFFFF" id="stop13"/>
	<stop offset="0.0168" style="stop-color:#FFFCEA" id="stop15"/>
	<stop offset="0.0446" style="stop-color:#FEF8C8" id="stop17"/>
	<stop offset="0.0744" style="stop-color:#FDF4A7" id="stop19"/>
	<stop offset="0.1058" style="stop-color:#FDF187" id="stop21"/>
	<stop offset="0.1393" style="stop-color:#FCEE6A" id="stop23"/>
	<stop offset="0.1756" style="stop-color:#FBEC50" id="stop25"/>
	<stop offset="0.2162" style="stop-color:#FBEB3B" id="stop27"/>
	<stop offset="0.2643" style="stop-color:#FBEA2C" id="stop29"/>
	<stop offset="0.3398" style="stop-color:#FBEA26" id="stop31"/>
	<stop offset="1" style="stop-color:#E6282B" id="stop33"/>
</radialGradient>
<path fill="url(#SVGID_2_)" d="M295.265,377.763c64.271-41.281,128.028-83.498,191.92-125.25c3.038-1.926,6.014-3.865,8.971-5.863  c-48.49-36.176-116.979-55.811-187.498-56.457c-38.369-0.353-77.349,4.93-114.037,16.22  C90.521,238.559,22.052,313.79,25.659,391.677c87.788-4.492,175.585-9.057,263.294-13.563  C291.118,377.958,293.194,377.874,295.265,377.763z" id="path35"/>
<radialGradient id="SVGID_3_" cx="337.168" cy="110.1719" r="308.1485" gradientUnits="userSpaceOnUse">
	<stop offset="0" style="stop-color:#FFFFFF" id="stop38"/>
	<stop offset="0.24" style="stop-color:#FBEA26" id="stop40"/>
	<stop offset="1" style="stop-color:#E6282B" id="stop42"/>
</radialGradient>
<path fill="url(#SVGID_3_)" d="M295.265,377.763l1.544,27.889c1.683-2.193,3.305-4.408,4.988-6.602  c1.487,1.117,3.051,2.285,4.533,3.455c3.11,2.318,6.212,4.648,9.324,6.967l-1.313-23.742l4.62-3.076  c59.399-38.768,118.866-77.543,178.282-116.362l-1.089-19.642c-2.957,1.998-5.933,3.938-8.971,5.863  C423.293,294.265,359.535,336.481,295.265,377.763z" id="path44"/>
<radialGradient id="SVGID_4_" cx="117.3745" cy="221.7939" r="170.2914" gradientUnits="userSpaceOnUse">
	<stop offset="0" style="stop-color:#F8CBDF" id="stop47"/>
	<stop offset="0.525" style="stop-color:#E7297B" id="stop49"/>
	<stop offset="1" style="stop-color:#9E2061" id="stop51"/>
</radialGradient>
<path fill="url(#SVGID_4_)" d="M282.992,393.056c-2.042,0.672-4.235,1.338-6.275,1.965c-81.369,25.095-162.731,50.131-244.109,75.23  l0.807,14.49c78.397-24.232,156.556-48.855,235.258-72.494l1.58,28.549c4.773-6.322,9.533-12.656,14.329-18.963L282.992,393.056z" id="path53"/>
<radialGradient id="SVGID_5_" cx="255.4653" cy="382.9116" r="290.6235" gradientUnits="userSpaceOnUse">
	<stop offset="0" style="stop-color:#F8CBDF" id="stop56"/>
	<stop offset="0.525" style="stop-color:#E7297B" id="stop58"/>
	<stop offset="1" style="stop-color:#9E2061" id="stop60"/>
</radialGradient>
<path fill="url(#SVGID_5_)" d="M15.273,423.675c0.532,2.982,1.382,5.916,2.113,8.873c0.584,2.357,1.002,4.74,1.717,7.078  c0.938,3.043,2.197,6.021,3.35,9.025c0.833,2.174,1.496,4.395,2.442,6.543c2.256,5.105,4.815,10.133,7.712,15.057  c81.378-25.1,162.74-50.135,244.109-75.23c2.04-0.627,4.233-1.293,6.275-1.965c-85.46,4.439-170.985,8.834-256.52,13.275  c-2.263,0.117-4.519,0.234-6.774,0.352c-2.087,0.098-4.153,0.189-6.312,0.287c0.046,0.908,0.156,1.816,0.248,2.736  c0.219,2.318,0.535,4.631,0.816,6.949C14.735,418.991,14.866,421.349,15.273,423.675z" id="path62"/>
<radialGradient id="SVGID_6_" cx="-23.0229" cy="397.8652" r="216.7496" gradientUnits="userSpaceOnUse">
	<stop offset="0" style="stop-color:#F8CBDF" id="stop65"/>
	<stop offset="0.525" style="stop-color:#E7297B" id="stop67"/>
	<stop offset="1" style="stop-color:#9E2061" id="stop69"/>
</radialGradient>
<path fill="url(#SVGID_6_)" d="M33.414,484.741l-0.807-14.49c-2.896-4.924-5.456-9.951-7.712-15.057  c-0.946-2.148-1.609-4.369-2.442-6.543c-1.152-3.004-2.412-5.982-3.35-9.025c-0.715-2.338-1.133-4.721-1.717-7.078  c-0.731-2.957-1.581-5.891-2.113-8.873c-0.407-2.326-0.538-4.684-0.822-7.02c-0.281-2.318-0.598-4.631-0.816-6.949  c-0.049-0.561-0.163-1.109-0.195-1.664l3.669,66.121c0.278,5.027,0.904,10.043,1.764,15.025c2.321-0.719,4.646-1.43,6.974-2.104  C28.369,486.302,30.89,485.519,33.414,484.741z" id="path71"/>
<path fill="#C3292E" d="M583.101,370.802c0.008,0.209,0,0.404,0.008,0.613c0.009,0.137,0.045,0.262,0.045,0.398  C583.137,371.481,583.117,371.134,583.101,370.802z" id="path73"/>
<radialGradient id="SVGID_7_" cx="591.5986" cy="635.1934" r="313.3333" gradientUnits="userSpaceOnUse">
	<stop offset="0" style="stop-color:#FCE1E2" id="stop76"/>
	<stop offset="0.0519" style="stop-color:#FBDCDB" id="stop78"/>
	<stop offset="0.1286" style="stop-color:#F9CCC6" id="stop80"/>
	<stop offset="0.2206" style="stop-color:#F6B1A4" id="stop82"/>
	<stop offset="0.3245" style="stop-color:#F18877" id="stop84"/>
	<stop offset="0.4368" style="stop-color:#EA4F43" id="stop86"/>
	<stop offset="0.5019" style="stop-color:#E52529" id="stop88"/>
	<stop offset="1" style="stop-color:#8B1817" id="stop90"/>
</radialGradient>
<path fill="url(#SVGID_7_)" d="M583.162,371.872c0.011,0.354-0.025,0.705-0.02,1.053c0.175,4.309,0.119,8.611-0.123,12.928  c-0.025,0.563-0.02,1.117-0.062,1.672c-0.02,0.301-0.036,0.594-0.056,0.881c-0.017,0.242-0.017,0.49-0.036,0.732  c-0.37,4.498-1.006,8.998-1.825,13.484c-0.072,0.385-0.117,0.77-0.189,1.156c-0.206,1.064-0.538,2.121-0.774,3.191  c-0.493,2.293-0.906,4.598-1.519,6.877c-0.287,1.084-0.728,2.143-1.04,3.219c-0.281,0.947-0.451,1.906-0.758,2.854  c-0.376,1.195-0.908,2.363-1.313,3.553c-1.015,2.945-2.14,5.877-3.353,8.789c-0.504,1.195-0.863,2.41-1.391,3.598  c-0.398,0.883-0.919,1.744-1.334,2.633c-0.477,1.018-0.834,2.049-1.338,3.068c-0.502,1.012-1.106,2.012-1.636,3.016  c-0.794,1.568-1.645,3.102-2.511,4.65c-0.349,0.619-0.646,1.246-1.006,1.867c-0.045,0.084-0.092,0.164-0.134,0.248  c-0.056,0.086-0.106,0.184-0.162,0.275c-0.053,0.09-0.119,0.168-0.161,0.26c-2.608,4.428-5.546,8.777-8.642,13.094  c-0.412,0.561-0.735,1.154-1.159,1.723c-0.34,0.471-0.764,0.922-1.114,1.385c-3.058,4.061-6.248,8.09-9.745,12.027  c-0.251,0.295-0.532,0.563-0.791,0.85c-0.126,0.145-0.234,0.293-0.368,0.438c-0.287,0.32-0.63,0.613-0.917,0.928  c-4.102,4.479-8.424,8.881-13.108,13.164c-9.711,8.842-20.442,17.166-32.13,24.846l3.665,66.135  c11.679-7.686,22.415-16.006,32.135-24.859c4.707-4.316,9.068-8.75,13.195-13.262c0.406-0.438,0.836-0.869,1.231-1.313  c3.814-4.252,7.31-8.588,10.608-12.982c0.738-0.998,1.466-1.998,2.185-2.99c3.208-4.48,6.259-9.004,8.945-13.602  c0.036-0.064,0.072-0.131,0.108-0.189c2.491-4.291,4.629-8.633,6.663-13c0.908-1.934,1.744-3.887,2.553-5.838  c1.284-3.082,2.463-6.184,3.522-9.307c0.674-1.984,1.34-3.969,1.923-5.955c1.089-3.709,2.025-7.418,2.795-11.139  c0.226-1.092,0.523-2.182,0.722-3.279c0.908-4.93,1.538-9.879,1.889-14.822c0.054-0.672,0.062-1.346,0.098-2.012  c0.279-5.008,0.359-10.01,0.081-14.984C585.563,415.251,584.357,393.558,583.162,371.872z" id="path92"/>
<radialGradient id="SVGID_8_" cx="268.4126" cy="378.873" r="412.5246" gradientUnits="userSpaceOnUse">
	<stop offset="0" style="stop-color:#FCE1E2" id="stop95"/>
	<stop offset="0.4942" style="stop-color:#E52529" id="stop97"/>
	<stop offset="1" style="stop-color:#8B1817" id="stop99"/>
</radialGradient>
<path fill="url(#SVGID_8_)" d="M314.342,385.729c2.405,1.867,4.916,3.682,7.332,5.543c14.314,10.689,28.618,21.373,43.009,32.063  c37.059,27.68,74.099,55.418,111.166,83.098c6.256,4.611,12.432,9.221,18.601,13.896c11.688-7.68,22.419-16.004,32.13-24.846  c4.685-4.283,9.007-8.686,13.108-13.164c0.287-0.314,0.63-0.607,0.917-0.928c3.929-4.35,7.516-8.809,10.904-13.314  c0.351-0.463,0.774-0.914,1.114-1.385c3.589-4.865,6.844-9.807,9.801-14.816c0.042-0.092,0.108-0.17,0.161-0.26  c0.466-0.791,0.861-1.588,1.302-2.391c0.866-1.549,1.717-3.082,2.511-4.65c1.031-2.023,2.021-4.055,2.974-6.084  c0.415-0.889,0.936-1.75,1.334-2.633c1.82-4.1,3.316-8.246,4.743-12.387c0.404-1.189,0.937-2.357,1.313-3.553  c1.357-4.297,2.383-8.625,3.316-12.949c0.236-1.07,0.568-2.127,0.774-3.191c0.973-5.113,1.655-10.24,2.051-15.373  c0.02-0.287,0.036-0.58,0.056-0.881c0.34-4.865,0.374-9.736,0.185-14.6c-0.006-0.348,0.03-0.699,0.02-1.053  c-0.009-0.025-0.009-0.045-0.009-0.059c0-0.137-0.036-0.262-0.045-0.398c-2.176-42.881-24.948-84.679-67.963-116.799  c-5.963,3.904-11.932,7.783-17.901,11.675c-59.416,38.819-118.883,77.595-178.282,116.362L314.342,385.729z" id="path101"/>
<radialGradient id="SVGID_9_" cx="252.8101" cy="784.5244" r="426.6604" gradientUnits="userSpaceOnUse">
	<stop offset="0" style="stop-color:#FCE1E2" id="stop104"/>
	<stop offset="0.67" style="stop-color:#E52529" id="stop106"/>
	<stop offset="1" style="stop-color:#8B1817" id="stop108"/>
</radialGradient>
<path fill="url(#SVGID_9_)" d="M475.849,506.433c-37.067-27.68-74.107-55.418-111.166-83.098  c-14.391-10.689-28.694-21.373-43.009-32.063c-2.416-1.861-4.927-3.676-7.332-5.543l1.313,23.742  c55.448,41.354,110.896,82.766,166.253,124.186l2.354,42.457c4.629,3.434,9.26,6.869,13.853,10.35l-3.665-66.135  C488.28,515.653,482.104,511.044,475.849,506.433z" id="path110"/>
<path fill="#858686" d="M468.593,541.806c4.539-2.605,8.989-5.328,13.314-8.148c-6.178,4.035-12.641,7.783-19.25,11.367  C464.636,543.948,466.65,542.923,468.593,541.806z" id="path112"/>
<path fill="#858686" d="M450.809,551.11c2.906-1.41,5.793-2.846,8.624-4.342c-2.851,1.502-5.854,2.809-8.774,4.225  C450.711,551.032,450.764,551.077,450.809,551.11z" id="path114"/>
<radialGradient id="SVGID_10_" cx="250.8633" cy="407.4507" r="236.5404" gradientUnits="userSpaceOnUse">
	<stop offset="0" style="stop-color:#E9F1D9" id="stop117"/>
	<stop offset="0.525" style="stop-color:#7EBA28" id="stop119"/>
	<stop offset="1" style="stop-color:#1E9438" id="stop121"/>
</radialGradient>
<path fill="url(#SVGID_10_)" d="M141.496,581.476c41.354-54.996,82.609-109.996,123.946-164.932  c1.025-1.438,2.132-2.854,3.229-4.297c-78.702,23.639-156.86,48.262-235.258,72.494c-2.524,0.777-5.045,1.561-7.568,2.344  c-2.328,0.674-4.652,1.385-6.974,2.104c-0.216,0.072-0.435,0.123-0.65,0.195C41.651,529.341,86.064,562.446,141.496,581.476z" id="path123"/>
<radialGradient id="SVGID_11_" cx="415.0322" cy="702.043" r="341.4618" gradientUnits="userSpaceOnUse">
	<stop offset="0" style="stop-color:#E9F1D9" id="stop126"/>
	<stop offset="0.525" style="stop-color:#7EBA28" id="stop128"/>
	<stop offset="1" style="stop-color:#1E9438" id="stop130"/>
</radialGradient>
<path fill="url(#SVGID_11_)" d="M178.778,562.78c30.521-40.662,60.838-81.375,91.474-121.984l-1.58-28.549  c-1.098,1.443-2.204,2.859-3.229,4.297c-41.337,54.936-82.593,109.936-123.946,164.932l3.667,66.121  c10.52-13.994,21.02-27.961,31.525-41.949l-2.063-37.311C176.009,566.45,177.394,564.614,178.778,562.78z" id="path132"/>
<radialGradient id="SVGID_12_" cx="143.459" cy="447.3447" r="248.3952" gradientUnits="userSpaceOnUse">
	<stop offset="0" style="stop-color:#E9F1D9" id="stop135"/>
	<stop offset="0.0028" style="stop-color:#E8F0D7" id="stop137"/>
	<stop offset="0.0687" style="stop-color:#D0E2AC" id="stop139"/>
	<stop offset="0.1355" style="stop-color:#BAD584" id="stop141"/>
	<stop offset="0.202" style="stop-color:#A6CA62" id="stop143"/>
	<stop offset="0.2682" style="stop-color:#96C348" id="stop145"/>
	<stop offset="0.334" style="stop-color:#89BE37" id="stop147"/>
	<stop offset="0.3992" style="stop-color:#80BB2C" id="stop149"/>
	<stop offset="0.4633" style="stop-color:#7EBA28" id="stop151"/>
	<stop offset="1" style="stop-color:#1E9438" id="stop153"/>
</radialGradient>
<path fill="url(#SVGID_12_)" d="M18.222,489.384l3.66,66.135c23.439,39.949,67.849,73.049,123.281,92.078l-3.667-66.121  C86.064,562.446,41.651,529.341,18.222,489.384z" id="path155"/>
<radialGradient id="SVGID_13_" cx="352.125" cy="846.2529" r="293.8251" gradientUnits="userSpaceOnUse">
	<stop offset="0" style="stop-color:#C9E8F7" id="stop158"/>
	<stop offset="0.5019" style="stop-color:#2AABE3" id="stop160"/>
	<stop offset="1" style="stop-color:#30358C" id="stop162"/>
</radialGradient>
<path fill="url(#SVGID_13_)" d="M468.593,541.806c-1.942,1.117-3.957,2.143-5.936,3.219c-1.076,0.588-2.138,1.176-3.225,1.744  c-2.831,1.496-5.718,2.932-8.624,4.342c-3.564,1.738-7.162,3.416-10.826,5.029c-1.192,0.527-2.386,1.031-3.592,1.533  c-6.259,2.672-12.596,5.219-19.097,7.516c-0.502,0.184-1.034,0.328-1.536,0.496c-1.546,0.543-3.138,1-4.692,1.521  c-5.849,1.939-11.76,3.756-17.754,5.408c-2.421,0.678-4.849,1.299-7.284,1.92c-2.31,0.594-4.575,1.266-6.902,1.814  c-3.84,0.895-7.738,1.658-11.62,2.441c-1.293,0.262-2.561,0.563-3.854,0.811c-6.365,1.215-12.771,2.313-19.22,3.213  c-1.26,0.176-2.527,0.287-3.787,0.451c-1.591,0.201-3.18,0.371-4.776,0.561c-7.281,0.855-14.588,1.549-21.925,1.998  c-0.669,0.047-1.335,0.117-1.998,0.15c-0.376,0.02-0.741,0.064-1.109,0.086c-8.273,0.438-16.58,0.625-24.859,0.547  c-2.976-0.02-5.943-0.084-8.917-0.182c-0.78-0.027-1.552-0.098-2.332-0.125c-3.979-0.156-7.953-0.385-11.919-0.658  c-1.502-0.105-3.001-0.17-4.5-0.289c-5.354-0.438-10.689-0.979-15.998-1.645c-0.248-0.025-0.499-0.033-0.744-0.072  c-0.725-0.084-1.43-0.24-2.148-0.332c-5.303-0.705-10.564-1.535-15.795-2.463c-1.496-0.268-2.988-0.535-4.47-0.816  c-6.061-1.162-12.077-2.428-18.018-3.904c-0.003,0-0.012,0-0.02,0c-0.627-0.15-1.232-0.34-1.859-0.502  c-0.448-0.119-0.886-0.242-1.329-0.359c-3.399-0.883-6.799-1.764-10.151-2.742c-4.428-1.301-8.814-2.697-13.15-4.18l2.063,37.311  l1.594,28.811c4.342,1.482,8.733,2.887,13.17,4.18c1.212,0.365,2.455,0.658,3.673,0.998c3.243,0.908,6.489,1.828,9.772,2.645  c5.863,1.451,11.807,2.697,17.778,3.84c1.586,0.307,3.183,0.594,4.776,0.881c5.055,0.902,10.144,1.691,15.263,2.371  c1.131,0.156,2.246,0.346,3.377,0.49c5.27,0.646,10.562,1.182,15.87,1.613c1.521,0.131,3.043,0.189,4.564,0.299  c3.929,0.268,7.866,0.504,11.813,0.646c3.762,0.145,7.526,0.281,11.297,0.314c8.603,0.084,17.216-0.145,25.815-0.627  c0.875-0.045,1.744-0.145,2.619-0.195c7.153-0.451,14.281-1.117,21.379-1.953c1.619-0.189,3.235-0.359,4.846-0.568  c7.73-1.006,15.422-2.213,23.034-3.67c1.293-0.24,2.569-0.549,3.862-0.809c6.184-1.248,12.301-2.678,18.367-4.225  c2.511-0.635,5.016-1.273,7.501-1.967c6.011-1.664,11.941-3.48,17.799-5.432c1.493-0.504,3.021-0.936,4.5-1.443  c2.898-1.02,5.665-2.234,8.519-3.311c5.735-2.176,11.453-4.389,16.99-6.852c3.068-1.363,6.014-2.893,9.018-4.354  c5.024-2.424,10.007-4.904,14.825-7.588c5.743-3.188,11.455-6.426,16.864-9.959l-1.313-23.67l-2.354-42.457  C477.582,536.478,473.132,539.2,468.593,541.806z" id="path164"/>
<radialGradient id="SVGID_14_" cx="332.5635" cy="424.332" r="210.1818" gradientUnits="userSpaceOnUse">
	<stop offset="0" style="stop-color:#C9E8F7" id="stop167"/>
	<stop offset="0.64" style="stop-color:#2AABE3" id="stop169"/>
	<stop offset="1" style="stop-color:#30358C" id="stop171"/>
</radialGradient>
<path fill="url(#SVGID_14_)" d="M301.797,399.05c-1.684,2.193-3.306,4.408-4.988,6.602c-4.116,5.375-8.129,10.795-12.228,16.182  c-4.796,6.307-9.556,12.641-14.329,18.963c-30.636,40.609-60.952,81.322-91.474,121.984c-1.385,1.834-2.77,3.67-4.152,5.557  c4.336,1.482,8.723,2.879,13.15,4.18c3.353,0.979,6.752,1.859,10.151,2.742c0.443,0.117,0.881,0.24,1.329,0.359  c0.63,0.162,1.246,0.352,1.879,0.502c5.94,1.477,11.957,2.742,18.018,3.904c1.482,0.281,2.974,0.549,4.47,0.816  c5.23,0.928,10.492,1.758,15.795,2.463c0.967,0.131,1.923,0.287,2.893,0.404c5.309,0.666,10.645,1.207,15.998,1.645  c1.499,0.119,2.998,0.184,4.5,0.289c3.966,0.273,7.939,0.502,11.919,0.658c3.745,0.145,7.493,0.268,11.249,0.307  c8.652,0.078,17.319-0.143,25.969-0.633c0.663-0.033,1.329-0.104,1.998-0.15c7.337-0.449,14.644-1.143,21.925-1.998  c1.597-0.189,3.186-0.359,4.776-0.561c7.725-1.014,15.399-2.215,23.007-3.664c1.293-0.248,2.561-0.549,3.854-0.811  c6.231-1.252,12.4-2.695,18.522-4.256c2.436-0.621,4.863-1.242,7.284-1.92c5.994-1.652,11.905-3.469,17.754-5.408  c1.555-0.521,3.146-0.979,4.692-1.521c7.022-2.447,13.889-5.145,20.633-8.012c1.206-0.502,2.399-1.006,3.592-1.533  c3.645-1.602,7.125-3.416,10.676-5.146c2.92-1.416,5.924-2.723,8.774-4.225c1.087-0.568,2.148-1.156,3.225-1.744  c6.609-3.584,13.072-7.332,19.25-11.367c-55.356-41.42-110.805-82.832-166.253-124.186c-3.112-2.318-6.214-4.648-9.324-6.967  C304.848,401.335,303.284,400.167,301.797,399.05z" id="path173"/>
<metadata><rdf:RDF><cc:Work><dc:format>image/svg+xml</dc:format><dc:type rdf:resource="http://purl.org/dc/dcmitype/StillImage"/><cc:license rdf:resource="http://creativecommons.org/licenses/publicdomain/"/><dc:publisher><cc:Agent rdf:about="http://openclipart.org/"><dc:title>Open Clip Art Library</dc:title></cc:Agent></dc:publisher><dc:title>Diagramma a torta</dc:title><dc:date>2010-06-21T15:51:56</dc:date><dc:description>Arch. Emilie Rollandin</dc:description><dc:source>http://openclipart.org/detail/68077/diagramma-a-torta-by-emilie.rollandin-68077</dc:source><dc:creator><cc:Agent><dc:title>emilie.rollandin</dc:title></cc:Agent></dc:creator><dc:subject><rdf:Bag><rdf:li>clip art</rdf:li><rdf:li>clipart</rdf:li><rdf:li>pie chart</rdf:li></rdf:Bag></dc:subject></cc:Work><cc:License rdf:about="http://creativecommons.org/licenses/publicdomain/"><cc:permits rdf:resource="http://creativecommons.org/ns#Reproduction"/><cc:permits rdf:resource="http://creativecommons.org/ns#Distribution"/><cc:permits rdf:resource="http://creativecommons.org/ns#DerivativeWorks"/></cc:License></rdf:RDF></metadata></svg>