<?xml version="1.0" encoding="UTF-8" standalone="no"?>
<!-- Generator: Adobe Illustrator 15.0.0, SVG Export Plug-In . SVG Version: 6.00 Build 0)  -->
<svg xmlns:dc="http://purl.org/dc/elements/1.1/" xmlns:cc="http://creativecommons.org/ns#" xmlns:rdf="http://www.w3.org/1999/02/22-rdf-syntax-ns#" xmlns:svg="http://www.w3.org/2000/svg" xmlns="http://www.w3.org/2000/svg" xmlns:sodipodi="http://sodipodi.sourceforge.net/DTD/sodipodi-0.dtd" xmlns:inkscape="http://www.inkscape.org/namespaces/inkscape" version="1.1" id="Layer_1" x="0px" y="0px" width="595.28px" height="841.89px" viewBox="0 0 595.28 841.89" enable-background="new 0 0 595.28 841.89" xml:space="preserve" inkscape:version="0.47 r22583" sodipodi:docname="diagramma a torta.svg"><defs id="defs186"><inkscape:perspective sodipodi:type="inkscape:persp3d" inkscape:vp_x="0 : 420.94501 : 1" inkscape:vp_y="0 : 1000 : 0" inkscape:vp_z="595.28003 : 420.94501 : 1" inkscape:persp3d-origin="297.64001 : 280.63 : 1" id="perspective190"/></defs><sodipodi:namedview pagecolor="#ffffff" bordercolor="#666666" borderopacity="1" objecttolerance="10" gridtolerance="10" guidetolerance="10" inkscape:pageopacity="0" inkscape:pageshadow="2" inkscape:window-width="683" inkscape:window-height="488" id="namedview184" showgrid="false" inkscape:zoom="0.28032165" inkscape:cx="297.64001" inkscape:cy="420.94501" inkscape:window-x="0" inkscape:window-y="0" inkscape:window-maximized="0" inkscape:current-layer="Layer_1"/>
<path fill="#858686" d="M500.683,571.224c0.034,0.027,0.077,0.055,0.102,0.074c1.607-0.856,3.247-1.68,4.826-2.565  c0.324-0.179,0.626-0.391,0.946-0.57l-0.005-0.186C504.608,569.081,502.654,570.159,500.683,571.224z" id="path3"/>
<radialGradient id="SVGID_1_" cx="145.3589" cy="519.6309" r="303.5246" gradientUnits="userSpaceOnUse">
	<stop offset="0" style="stop-color:#FFFFFF" id="stop6"/>
	<stop offset="0.24" style="stop-color:#FBEA26" id="stop8"/>
	<stop offset="1" style="stop-color:#E6282B" id="stop10"/>
</radialGradient>
<path fill="url(#SVGID_1_)" d="M306.513,364.922l1.216,38.056c0.577,0.912,1.16,1.826,1.716,2.725  c8.503,13.494,17.002,26.983,25.502,40.485l-1.221-38.077c1.646,1.235,3.369,2.45,4.977,3.618  c55.577,40.397,111.175,80.72,166.732,121.064l-0.763-24.003c-2.138-1.552-4.388-3.123-6.521-4.681  C434.282,457.689,369.736,411.702,306.513,364.922z" id="path12"/>
<radialGradient id="SVGID_2_" cx="632.3887" cy="526.0723" r="285.8934" gradientUnits="userSpaceOnUse">
	<stop offset="0" style="stop-color:#FFFFFF" id="stop15"/>
	<stop offset="0.1429" style="stop-color:#FBEA26" id="stop17"/>
	<stop offset="0.1784" style="stop-color:#F9DC2C" id="stop19"/>
	<stop offset="0.2624" style="stop-color:#F4BB32" id="stop21"/>
	<stop offset="0.3507" style="stop-color:#F09A33" id="stop23"/>
	<stop offset="0.4416" style="stop-color:#EC7C32" id="stop25"/>
	<stop offset="0.5357" style="stop-color:#EA6130" id="stop27"/>
	<stop offset="0.6342" style="stop-color:#E8492E" id="stop29"/>
	<stop offset="0.7389" style="stop-color:#E6372D" id="stop31"/>
	<stop offset="0.854" style="stop-color:#E62C2C" id="stop33"/>
	<stop offset="1" style="stop-color:#E6282B" id="stop35"/>
</radialGradient>
<path fill="url(#SVGID_2_)" d="M589.319,361.621c-0.007,0.878,0.021,1.756,0,2.636c-0.033,1.173-0.082,2.347-0.146,3.52  c-0.059,1.235-0.176,2.465-0.261,3.693c-0.196,2.676-0.452,5.338-0.794,8.002c-0.104,0.797-0.163,1.578-0.28,2.375  c-0.049,0.329-0.053,0.66-0.104,0.988c-0.066,0.426-0.193,0.844-0.255,1.27c-0.741,4.625-1.638,9.237-2.783,13.821  c-0.091,0.357-0.172,0.708-0.263,1.058c-0.186,0.735-0.456,1.476-0.651,2.21c-1.192,4.406-2.589,8.776-4.174,13.138  c-0.121,0.32-0.188,0.643-0.315,0.958c-0.077,0.221-0.131,0.44-0.212,0.647c-0.077,0.219-0.181,0.433-0.269,0.649  c-1.057,2.76-2.23,5.493-3.438,8.224c-0.355,0.809-0.658,1.634-1.038,2.441c-0.616,1.33-1.322,2.651-1.977,3.982  c-0.494,0.996-0.98,1.978-1.494,2.965c-0.603,1.179-1.159,2.374-1.806,3.547c-0.509,0.942-1.104,1.867-1.632,2.816  c-1.435,2.509-2.881,5.021-4.449,7.499c-0.225,0.358-0.439,0.727-0.664,1.085c-0.199,0.302-0.427,0.595-0.614,0.899  c-0.389,0.582-0.82,1.161-1.206,1.756c-1.428,2.147-2.866,4.285-4.399,6.392c-0.3,0.423-0.563,0.858-0.877,1.282  c-0.452,0.625-1.003,1.223-1.468,1.831c-0.805,1.071-1.592,2.148-2.426,3.204c-0.257,0.343-0.506,0.699-0.78,1.037  c-1.407,1.772-2.925,3.5-4.406,5.236c-0.785,0.926-1.537,1.854-2.342,2.773c-1.663,1.887-3.41,3.74-5.166,5.599  c-0.783,0.832-1.559,1.661-2.362,2.486c-1.02,1.028-2.003,2.077-3.045,3.107c-0.702,0.681-1.443,1.346-2.156,2.022  c-2.635,2.537-5.346,5.033-8.162,7.504c-0.689,0.596-1.394,1.187-2.083,1.781c-1.018,0.859-2.048,1.726-3.076,2.57  c-4.208,3.471-8.509,6.869-13.073,10.163l0.763,24.003c8.802,6.394,17.63,12.796,26.435,19.192l0.091,2.74  c0.401-0.384,0.856-0.739,1.254-1.133c0.707-0.681,1.447-1.334,2.135-2.011c3.691-3.637,7.19-7.367,10.531-11.152  c0.853-0.961,1.656-1.943,2.487-2.92c2.601-3.055,5.086-6.146,7.449-9.281c0.822-1.096,1.658-2.157,2.452-3.258  c1.507-2.077,2.913-4.179,4.313-6.285c0.851-1.263,1.729-2.518,2.533-3.794c1.563-2.487,3.018-4.997,4.446-7.513  c0.53-0.945,1.129-1.867,1.64-2.816c1.89-3.466,3.646-6.966,5.278-10.485c0.353-0.771,0.631-1.547,0.975-2.315  c1.235-2.778,2.429-5.581,3.509-8.386c0.271-0.727,0.5-1.454,0.76-2.185c1.599-4.341,2.979-8.733,4.187-13.138  c0.249-0.91,0.53-1.808,0.754-2.71c1.218-4.769,2.182-9.561,2.939-14.381c0.195-1.2,0.343-2.399,0.501-3.601  c0.41-3.006,0.72-6.021,0.947-9.031c0.083-1.235,0.198-2.487,0.266-3.729c0.201-4.138,0.289-8.275,0.161-12.401l-2.136-66.831  C589.407,357.455,589.341,359.535,589.319,361.621z" id="path37"/>
<path fill="#7EBA28" d="M506.557,568.162c1.456-0.827,2.856-1.714,4.294-2.566c-1.403,0.816-2.887,1.564-4.299,2.381  L506.557,568.162z" id="path39"/>
<path fill="#A3A3A2" d="M198.219,592.554c1.222,0.337,2.464,0.639,3.693,0.969c0.006,0,0.006-0.007,0.011-0.007  C200.689,593.184,199.441,592.891,198.219,592.554z" id="path41"/>
<radialGradient id="SVGID_3_" cx="416.2832" cy="537.3584" r="205.252" gradientUnits="userSpaceOnUse">
	<stop offset="0" style="stop-color:#FFFFFF" id="stop44"/>
	<stop offset="0.24" style="stop-color:#FBEA26" id="stop46"/>
	<stop offset="1" style="stop-color:#E6282B" id="stop48"/>
</radialGradient>
<path fill="url(#SVGID_3_)" d="M306.726,401.373c0.329,0.527,0.666,1.07,1.003,1.605l-1.216-38.056  c-0.933,1.414-1.914,2.93-2.848,4.344c-40.096,60.808-80.196,121.602-120.324,182.343l1.118,35.089  c0.873-1.283,1.727-2.565,2.568-3.835C226.918,522.357,266.188,461.638,306.726,401.373z" id="path50"/>
<radialGradient id="SVGID_4_" cx="-43.3086" cy="691.3594" r="377.0547" gradientUnits="userSpaceOnUse">
	<stop offset="0" style="stop-color:#FFFFFF" id="stop53"/>
	<stop offset="0.24" style="stop-color:#FBEA26" id="stop55"/>
	<stop offset="0.2576" style="stop-color:#F9DE2B" id="stop57"/>
	<stop offset="0.3034" style="stop-color:#F5C131" id="stop59"/>
	<stop offset="0.3535" style="stop-color:#F1A333" id="stop61"/>
	<stop offset="0.407" style="stop-color:#EE8633" id="stop63"/>
	<stop offset="0.4646" style="stop-color:#EB6D31" id="stop65"/>
	<stop offset="0.5276" style="stop-color:#E9562F" id="stop67"/>
	<stop offset="0.5985" style="stop-color:#E7422D" id="stop69"/>
	<stop offset="0.6814" style="stop-color:#E6342C" id="stop71"/>
	<stop offset="0.7879" style="stop-color:#E62B2B" id="stop73"/>
	<stop offset="1" style="stop-color:#E6282B" id="stop75"/>
</radialGradient>
<path fill="url(#SVGID_4_)" d="M184.459,586.698l-1.118-35.089c-6.167-2.053-12.179-4.282-18.061-6.643  c-1.91-0.762-3.724-1.628-5.604-2.432c-3.908-1.661-7.813-3.313-11.587-5.104c-2.183-1.037-4.262-2.168-6.4-3.247  c-3.335-1.687-6.678-3.369-9.9-5.154c-2.206-1.227-4.31-2.525-6.456-3.802c-2.995-1.765-5.99-3.535-8.877-5.396  c-2.148-1.38-4.21-2.834-6.295-4.258c-2.723-1.875-5.432-3.741-8.048-5.689c-2.049-1.518-4.016-3.092-5.994-4.663  c-2.475-1.965-4.932-3.939-7.3-5.971c-1.922-1.653-3.775-3.335-5.622-5.023c-2.25-2.058-4.46-4.138-6.603-6.265  c-1.766-1.758-3.478-3.535-5.171-5.339c-2.031-2.156-4-4.339-5.918-6.551c-1.6-1.851-3.161-3.711-4.678-5.601  c-1.815-2.246-3.555-4.532-5.242-6.842c-1.422-1.923-2.819-3.855-4.15-5.817c-1.598-2.354-3.094-4.734-4.563-7.136  c-1.219-1.984-2.443-3.969-3.572-5.979c-1.379-2.457-2.635-4.941-3.885-7.44c-1.009-2.016-2.043-4.04-2.972-6.093  c-1.155-2.565-2.161-5.177-3.177-7.783c-0.79-2.025-1.631-4.036-2.33-6.088c-0.94-2.73-1.696-5.498-2.48-8.263  c-0.558-1.976-1.188-3.933-1.666-5.93c-0.715-2.991-1.217-6.026-1.746-9.051c-0.312-1.793-0.727-3.577-0.975-5.381  c-0.514-3.823-0.79-7.673-0.998-11.53c-0.054-0.982-0.223-1.956-0.258-2.952l2.128,66.53  c2.408,75.74,64.818,145.498,159.566,177.366l-0.958-30.019C183.868,587.612,184.154,587.152,184.459,586.698z" id="path77"/>
<radialGradient id="SVGID_5_" cx="353.3896" cy="193.0645" r="466.4966" gradientUnits="userSpaceOnUse">
	<stop offset="0" style="stop-color:#FFFFFF" id="stop80"/>
	<stop offset="0.0368" style="stop-color:#FFFCE8" id="stop82"/>
	<stop offset="0.0973" style="stop-color:#FEF7C2" id="stop84"/>
	<stop offset="0.1593" style="stop-color:#FDF39D" id="stop86"/>
	<stop offset="0.2218" style="stop-color:#FCF07A" id="stop88"/>
	<stop offset="0.2848" style="stop-color:#FCED5B" id="stop90"/>
	<stop offset="0.3487" style="stop-color:#FBEB41" id="stop92"/>
	<stop offset="0.4139" style="stop-color:#FBEA2E" id="stop94"/>
	<stop offset="0.4826" style="stop-color:#FBEA26" id="stop96"/>
	<stop offset="1" style="stop-color:#E6282B" id="stop98"/>
</radialGradient>
<path fill="url(#SVGID_5_)" d="M24.069,388.668c0.248,1.804,0.663,3.588,0.975,5.381c0.529,3.025,1.031,6.06,1.746,9.051  c0.479,1.997,1.108,3.954,1.666,5.93c0.784,2.765,1.54,5.532,2.48,8.263c0.699,2.052,1.54,4.063,2.33,6.088  c1.016,2.606,2.021,5.218,3.177,7.783c0.929,2.053,1.963,4.077,2.972,6.093c1.25,2.499,2.505,4.983,3.885,7.44  c1.129,2.01,2.354,3.994,3.572,5.979c1.469,2.401,2.965,4.782,4.563,7.136c1.332,1.962,2.728,3.895,4.15,5.817  c1.688,2.31,3.427,4.596,5.242,6.842c1.517,1.89,3.078,3.75,4.678,5.601c1.917,2.212,3.887,4.395,5.918,6.551  c1.693,1.804,3.405,3.581,5.171,5.339c2.143,2.127,4.352,4.207,6.603,6.265c1.847,1.688,3.7,3.37,5.622,5.023  c2.368,2.031,4.825,4.006,7.3,5.971c1.979,1.571,3.945,3.146,5.994,4.663c2.616,1.948,5.325,3.814,8.048,5.689  c2.085,1.424,4.147,2.878,6.295,4.258c2.887,1.861,5.882,3.632,8.877,5.396c2.146,1.276,4.25,2.575,6.456,3.802  c3.222,1.785,6.565,3.468,9.9,5.154c2.139,1.079,4.217,2.21,6.4,3.247c3.775,1.791,7.679,3.443,11.587,5.104  c1.879,0.804,3.693,1.67,5.604,2.432c5.882,2.36,11.894,4.59,18.061,6.643c40.128-60.741,80.228-121.535,120.324-182.343  c0.934-1.414,1.915-2.931,2.848-4.344c63.224,46.78,127.77,92.768,191.638,139.188c2.134,1.558,4.384,3.129,6.521,4.681  c5.682-4.097,11.022-8.365,16.149-12.733c0.689-0.595,1.394-1.186,2.083-1.781c4.694-4.112,9.15-8.325,13.363-12.634  c0.804-0.825,1.579-1.654,2.362-2.486c4.2-4.447,8.229-8.97,11.914-13.608c0.274-0.338,0.523-0.694,0.78-1.037  c3.734-4.735,7.192-9.556,10.376-14.465c0.188-0.305,0.415-0.598,0.614-0.899c3.134-4.899,5.957-9.903,8.551-14.947  c0.514-0.987,1-1.969,1.494-2.965c2.487-5.061,4.778-10.138,6.722-15.297c0.081-0.207,0.135-0.426,0.212-0.647  c2.018-5.38,3.725-10.822,5.141-16.306c0.091-0.35,0.172-0.7,0.263-1.058c1.336-5.333,2.371-10.699,3.142-16.079  c0.117-0.797,0.176-1.577,0.28-2.375c0.645-5.064,1.055-10.138,1.201-15.215c0.021-0.879-0.007-1.758,0-2.636  c0.377-40.65-15.446-81.265-48.413-115.843c-67.757-70.99-195.245-102.525-311.096-77.195c-13.514,2.938-26.579,6.596-39.147,10.885  C95.012,212.13,28.691,281.865,23.108,358.93c-0.37,5.059-0.457,10.083-0.295,15.092c0.007,0.049,0,0.09,0,0.14  c0,0.014,0,0.018,0,0.025c0.035,0.996,0.204,1.97,0.258,2.952C23.279,380.996,23.555,384.845,24.069,388.668z" id="path100"/>
<radialGradient id="SVGID_6_" cx="545.2891" cy="724.4121" r="174.9648" gradientUnits="userSpaceOnUse">
	<stop offset="0" style="stop-color:#C9E8F7" id="stop103"/>
	<stop offset="0.4556" style="stop-color:#2AABE3" id="stop105"/>
	<stop offset="0.4784" style="stop-color:#2397D5" id="stop107"/>
	<stop offset="0.5098" style="stop-color:#2380C3" id="stop109"/>
	<stop offset="0.5446" style="stop-color:#276BB3" id="stop111"/>
	<stop offset="0.5827" style="stop-color:#2B5AA6" id="stop113"/>
	<stop offset="0.6251" style="stop-color:#2E4C9C" id="stop115"/>
	<stop offset="0.6738" style="stop-color:#304194" id="stop117"/>
	<stop offset="0.7326" style="stop-color:#303A8F" id="stop119"/>
	<stop offset="0.8119" style="stop-color:#30368C" id="stop121"/>
	<stop offset="1" style="stop-color:#30358C" id="stop123"/>
</radialGradient>
<path fill="url(#SVGID_6_)" d="M515.314,562.912c-1.466,0.907-2.963,1.793-4.464,2.684c-1.438,0.853-2.838,1.739-4.294,2.566  c-0.32,0.18-0.622,0.392-0.946,0.57c-1.579,0.886-3.219,1.709-4.826,2.565c-1.967,1.073-3.923,2.136-5.922,3.166  c-0.595,0.307-1.153,0.622-1.749,0.925c-5.991,3.033-12.163,5.857-18.436,8.544c-1.572,0.681-3.147,1.332-4.734,1.986  c-6.404,2.636-12.894,5.167-19.532,7.436l2.134,66.816c6.755-2.311,13.357-4.876,19.863-7.559c1.365-0.568,2.729-1.132,4.089-1.724  c6.418-2.737,12.731-5.628,18.854-8.73c0.473-0.234,0.92-0.501,1.394-0.749c5.497-2.812,10.816-5.79,16.031-8.87  c1.614-0.963,3.232-1.917,4.826-2.904c5.635-3.473,11.156-7.034,16.41-10.81l-2.052-64.1l-0.091-2.74  C526.577,555.794,521.006,559.403,515.314,562.912z" id="path125"/>
<radialGradient id="SVGID_7_" cx="451.4746" cy="626.7627" r="23.6353" gradientUnits="userSpaceOnUse">
	<stop offset="0" style="stop-color:#C9E8F7" id="stop128"/>
	<stop offset="0.64" style="stop-color:#2AABE3" id="stop130"/>
	<stop offset="1" style="stop-color:#30358C" id="stop132"/>
</radialGradient>
<path fill="url(#SVGID_7_)" d="M450.404,593.354l2.136,66.816c0.005,0,0.005,0,0.005,0l-2.134-66.816  C450.411,593.354,450.411,593.354,450.404,593.354z" id="path134"/>
<radialGradient id="SVGID_8_" cx="284.0469" cy="601.8486" r="185.6499" gradientUnits="userSpaceOnUse">
	<stop offset="0" style="stop-color:#C9E8F7" id="stop137"/>
	<stop offset="0.64" style="stop-color:#2AABE3" id="stop139"/>
	<stop offset="1" style="stop-color:#30358C" id="stop141"/>
</radialGradient>
<path fill="url(#SVGID_8_)" d="M447.679,589.025c-37.98-60.296-75.965-120.601-113.953-180.915l1.221,38.077  c29.484,46.812,58.975,93.613,88.457,140.435l0.928,28.778c8.492,13.493,16.994,26.966,25.49,40.458  c0.893,1.42,1.79,2.832,2.719,4.313l-2.136-66.816C449.479,591.88,448.594,590.457,447.679,589.025z" id="path143"/>
<radialGradient id="SVGID_9_" cx="365.4834" cy="398.667" r="279.8134" gradientUnits="userSpaceOnUse">
	<stop offset="0" style="stop-color:#C9E8F7" id="stop146"/>
	<stop offset="0.64" style="stop-color:#2AABE3" id="stop148"/>
	<stop offset="1" style="stop-color:#30358C" id="stop150"/>
</radialGradient>
<path fill="url(#SVGID_9_)" d="M333.726,408.111c37.988,60.314,75.973,120.619,113.953,180.915c0.915,1.432,1.8,2.854,2.726,4.329  c6.646-2.269,13.135-4.8,19.539-7.436c1.587-0.654,3.162-1.306,4.734-1.986c6.272-2.687,12.444-5.511,18.436-8.544  c0.596-0.303,1.154-0.618,1.749-0.925c1.989-1.03,3.866-2.171,5.82-3.24c1.972-1.064,3.926-2.143,5.869-3.247  c1.412-0.816,2.896-1.564,4.299-2.381c1.501-0.891,2.998-1.776,4.464-2.684c5.691-3.509,11.263-7.118,16.555-10.927  c-8.805-6.396-17.633-12.799-26.435-19.192c-55.558-40.344-111.155-80.667-166.732-121.064  C337.095,410.561,335.372,409.346,333.726,408.111z" id="path152"/>
<radialGradient id="SVGID_10_" cx="317.1055" cy="398.6704" r="310.0761" gradientUnits="userSpaceOnUse">
	<stop offset="0" style="stop-color:#E9F1D9" id="stop155"/>
	<stop offset="0" style="stop-color:#FFFFFF" id="stop157"/>
	<stop offset="0.525" style="stop-color:#7EBA28" id="stop159"/>
	<stop offset="1" style="stop-color:#1E9438" id="stop161"/>
</radialGradient>
<path fill="url(#SVGID_10_)" d="M307.729,402.978c-0.337-0.535-0.674-1.078-1.003-1.605  c-40.538,60.265-79.808,120.985-119.698,181.491c-0.842,1.27-1.696,2.552-2.568,3.835c-0.305,0.454-0.591,0.914-0.91,1.366  c4.832,1.605,9.727,3.09,14.67,4.489c1.222,0.337,2.47,0.63,3.704,0.962c0.93,0.248,1.866,0.477,2.796,0.727  c2.811,0.733,5.608,1.497,8.449,2.161c1.259,0.296,2.539,0.544,3.805,0.825c6.054,1.351,12.162,2.539,18.317,3.602  c1.363,0.228,2.711,0.479,4.074,0.701c6.887,1.106,13.832,2.011,20.812,2.737c1.696,0.172,3.393,0.312,5.091,0.459  c4.657,0.425,9.333,0.771,14.011,1.022c1.764,0.097,3.522,0.21,5.29,0.276c6.136,0.253,12.287,0.411,18.444,0.377  c0.604,0,1.203-0.026,1.807-0.042c5.47-0.042,10.935-0.23,16.396-0.508c1.763-0.095,3.526-0.224,5.29-0.336  c4.33-0.272,8.648-0.622,12.958-1.04c1.873-0.187,3.754-0.372,5.621-0.579c4.894-0.551,9.76-1.202,14.61-1.928  c1.112-0.171,2.238-0.304,3.356-0.482c5.984-0.954,11.949-2.05,17.857-3.287c1.086-0.226,2.15-0.495,3.225-0.727  c5.389-1.175,10.729-2.478,16.028-3.883c1.596-0.427,3.203-0.853,4.795-1.306c6.22-1.735,12.389-3.59,18.447-5.664  c-29.482-46.821-58.973-93.623-88.457-140.435c-8.5-13.502-16.999-26.991-25.502-40.485  C308.889,404.804,308.306,403.89,307.729,402.978z" id="path163"/>
<radialGradient id="SVGID_11_" cx="314.6924" cy="863.0742" r="292.6804" gradientUnits="userSpaceOnUse">
	<stop offset="0" style="stop-color:#E9F1D9" id="stop166"/>
	<stop offset="0.525" style="stop-color:#7EBA28" id="stop168"/>
	<stop offset="0.5295" style="stop-color:#7AB829" id="stop170"/>
	<stop offset="0.5709" style="stop-color:#5EAA30" id="stop172"/>
	<stop offset="0.6195" style="stop-color:#47A034" id="stop174"/>
	<stop offset="0.6799" style="stop-color:#329937" id="stop176"/>
	<stop offset="0.7647" style="stop-color:#239538" id="stop178"/>
	<stop offset="1" style="stop-color:#1E9438" id="stop180"/>
</radialGradient>
<path fill="url(#SVGID_11_)" d="M404.956,592.286c-1.592,0.453-3.199,0.879-4.795,1.306c-5.3,1.405-10.64,2.708-16.028,3.883  c-0.789,0.172-1.549,0.399-2.34,0.563c-0.293,0.062-0.589,0.108-0.885,0.163c-5.908,1.237-11.873,2.333-17.857,3.287  c-1.118,0.179-2.244,0.312-3.356,0.482c-4.851,0.726-9.717,1.377-14.61,1.928c-0.822,0.084-1.642,0.242-2.472,0.322  c-1.05,0.11-2.106,0.148-3.149,0.257c-4.31,0.418-8.628,0.768-12.958,1.04c-1.764,0.112-3.527,0.241-5.29,0.336  c-5.462,0.277-10.927,0.466-16.396,0.508c-0.494,0.016-0.987,0.049-1.477,0.049c-0.108,0-0.225-0.007-0.33-0.007  c-6.157,0.034-12.308-0.124-18.444-0.377c-1.768-0.066-3.526-0.18-5.29-0.276c-4.679-0.252-9.354-0.598-14.011-1.022  c-1.137-0.101-2.289-0.128-3.423-0.247c-0.56-0.053-1.108-0.157-1.668-0.212c-6.98-0.727-13.925-1.631-20.812-2.737  c-1.363-0.222-2.711-0.474-4.074-0.701c-6.156-1.063-12.263-2.251-18.317-3.602c-0.847-0.187-1.721-0.31-2.572-0.509  c-0.417-0.095-0.823-0.222-1.232-0.316c-2.841-0.664-5.639-1.428-8.449-2.161c-0.93-0.25-1.877-0.459-2.807-0.72  c-1.229-0.33-2.471-0.632-3.693-0.969c-4.943-1.399-9.838-2.884-14.67-4.489l0.958,30.019l1.177,36.815  c4.894,1.61,9.854,3.125,14.863,4.537c1.312,0.36,2.655,0.677,3.978,1.032c3.705,0.996,7.407,1.979,11.16,2.851  c0.879,0.206,1.764,0.378,2.642,0.577c6.329,1.42,12.723,2.669,19.157,3.773c1.344,0.227,2.683,0.487,4.035,0.695  c6.839,1.091,13.736,1.989,20.671,2.715c1.818,0.193,3.649,0.343,5.472,0.501c4.495,0.404,9,0.743,13.522,0.982  c1.869,0.108,3.74,0.222,5.616,0.294c6.218,0.257,12.439,0.404,18.677,0.374c5.95-0.045,11.893-0.249,17.837-0.556  c1.869-0.089,3.727-0.229,5.593-0.352c4.063-0.271,8.118-0.59,12.168-0.978c2.219-0.218,4.436-0.429,6.645-0.69  c4.269-0.483,8.517-1.042,12.752-1.669c1.702-0.248,3.404-0.451,5.101-0.726c5.723-0.929,11.413-1.976,17.067-3.148  c1.556-0.324,3.088-0.707,4.639-1.051c4.914-1.087,9.802-2.269,14.645-3.567c1.807-0.469,3.604-0.951,5.394-1.452  c6.139-1.731,12.238-3.562,18.231-5.6l-1.217-38.042l-0.928-28.778C417.345,588.696,411.176,590.551,404.956,592.286z" id="path182"/>
<metadata><rdf:RDF><cc:Work><dc:format>image/svg+xml</dc:format><dc:type rdf:resource="http://purl.org/dc/dcmitype/StillImage"/><cc:license rdf:resource="http://creativecommons.org/licenses/publicdomain/"/><dc:publisher><cc:Agent rdf:about="http://openclipart.org/"><dc:title>Open Clip Art Library</dc:title></cc:Agent></dc:publisher><dc:title>Diagramma a torta</dc:title><dc:date>2010-06-21T15:51:37</dc:date><dc:description>Arch. Emilie Rollandin</dc:description><dc:source>http://openclipart.org/detail/68071/diagramma-a-torta-by-emilie.rollandin</dc:source><dc:creator><cc:Agent><dc:title>emilie.rollandin</dc:title></cc:Agent></dc:creator><dc:subject><rdf:Bag><rdf:li>clip art</rdf:li><rdf:li>clipart</rdf:li><rdf:li>diagram</rdf:li><rdf:li>pie chart</rdf:li><rdf:li>piechart</rdf:li></rdf:Bag></dc:subject></cc:Work><cc:License rdf:about="http://creativecommons.org/licenses/publicdomain/"><cc:permits rdf:resource="http://creativecommons.org/ns#Reproduction"/><cc:permits rdf:resource="http://creativecommons.org/ns#Distribution"/><cc:permits rdf:resource="http://creativecommons.org/ns#DerivativeWorks"/></cc:License></rdf:RDF></metadata></svg>